<?xml version="1.0" standalone="no"?>
<!DOCTYPE svg PUBLIC "-//W3C//DTD SVG 20010904//EN"
 "http://www.w3.org/TR/2001/REC-SVG-20010904/DTD/svg10.dtd">
<svg version="1.0" xmlns="http://www.w3.org/2000/svg"
 width="432.000000pt" height="577.000000pt" viewBox="0 0 432.000000 577.000000"
 preserveAspectRatio="xMidYMid meet">

<g transform="translate(0.000000,577.000000) scale(0.100000,-0.100000)"
fill="#000000" stroke="none">
<path d="M2026 5511 c-3 -5 5 -16 19 -25 15 -10 26 -12 30 -6 8 13 68 13 82
-1 7 -7 12 -6 17 6 6 18 -16 30 -39 22 -8 -4 -17 -2 -20 3 -8 13 -82 13 -89 1z"/>
<path d="M2190 5505 c0 -8 8 -16 18 -16 9 -1 24 -2 32 -3 8 0 15 -8 15 -16 0
-10 -8 -14 -22 -12 -25 4 -32 -15 -9 -24 19 -7 56 13 56 31 0 8 8 19 18 25 14
9 12 10 -11 5 -19 -4 -29 -1 -33 10 -8 20 -64 20 -64 0z"/>
<path d="M1957 5503 c-13 -12 -7 -23 12 -23 10 0 21 7 25 15 5 15 -24 22 -37
8z"/>
<path d="M1905 5490 c-3 -5 -4 -10 -1 -10 2 0 12 -3 20 -6 12 -5 15 -2 10 10
-7 18 -20 21 -29 6z"/>
<path d="M2320 5495 c0 -2 9 -9 20 -15 16 -9 20 -8 20 5 0 8 -9 15 -20 15 -11
0 -20 -2 -20 -5z"/>
<path d="M1884 5472 c10 -16 -15 -27 -26 -11 -7 11 -11 11 -15 2 -2 -7 -12
-13 -20 -13 -12 0 -13 -3 -3 -15 6 -8 17 -13 23 -12 7 1 11 -6 11 -15 -1 -10
4 -14 12 -11 8 3 14 15 14 27 0 12 5 27 11 33 8 8 7 13 -2 18 -7 5 -10 4 -5
-3z"/>
<path d="M2376 5466 c3 -9 11 -16 16 -16 13 0 5 23 -10 28 -7 2 -10 -2 -6 -12z"/>
<path d="M2424 5462 c12 -14 30 -22 50 -21 52 0 75 -6 90 -26 8 -11 20 -16 29
-12 9 3 23 0 31 -8 7 -8 27 -17 42 -20 16 -4 36 -9 44 -12 8 -4 20 -7 25 -7 6
-1 9 -10 8 -20 -1 -14 4 -16 21 -12 25 6 106 -28 106 -44 0 -6 6 -10 13 -10 7
0 36 -15 64 -34 29 -19 60 -36 70 -38 10 -2 19 -12 21 -23 2 -18 63 -55 90
-55 14 0 72 -61 72 -76 0 -12 4 -13 21 -4 25 14 35 7 16 -11 -19 -19 -10 -38
15 -31 17 4 19 2 13 -17 -4 -14 -2 -21 7 -22 7 -1 22 -2 33 -3 12 0 19 -8 19
-18 -1 -10 5 -18 13 -18 9 0 13 -6 10 -14 -4 -9 2 -17 14 -21 14 -5 19 -13 16
-26 -3 -11 0 -19 7 -19 7 0 21 -9 31 -20 12 -13 14 -20 5 -20 -9 0 -10 -3 -1
-14 12 -14 51 -11 51 5 0 23 -21 58 -40 64 -15 5 -19 12 -15 26 4 13 2 19 -9
19 -9 0 -16 6 -16 13 0 6 -13 18 -30 25 -21 10 -30 21 -30 38 0 13 -4 24 -9
24 -4 0 -39 29 -77 65 -38 36 -81 70 -96 77 -16 7 -28 16 -28 20 0 5 -7 8 -15
8 -8 0 -15 3 -15 8 0 4 -21 19 -48 35 -69 40 -82 49 -132 83 -41 29 -168 92
-180 90 -3 0 -21 9 -41 22 -20 12 -47 22 -61 22 -13 0 -28 4 -33 8 -10 9 -80
26 -150 38 l-40 7 19 -21z"/>
<path d="M1758 5448 c-7 -7 -22 -13 -33 -12 -23 1 -95 -36 -95 -48 0 -5 -5 -6
-10 -3 -6 4 -30 -3 -53 -14 -23 -11 -54 -25 -69 -30 -16 -6 -28 -15 -28 -21 0
-6 -4 -9 -9 -6 -5 3 -20 -5 -32 -19 -13 -13 -31 -25 -39 -25 -23 -1 -53 -27
-41 -35 12 -7 70 30 84 52 4 7 16 13 27 13 10 0 25 7 34 15 8 8 19 15 24 15 6
0 13 6 15 13 4 9 6 9 6 -1 1 -8 16 -5 49 12 26 13 56 26 67 28 11 1 25 9 31
17 6 8 16 11 24 6 10 -6 9 -9 -1 -16 -11 -7 -10 -9 5 -9 12 0 16 5 12 15 -8
21 43 42 56 23 5 -9 8 -6 8 9 0 28 -14 37 -32 21z"/>
<path d="M2438 5393 c-10 -2 -15 -10 -11 -19 7 -20 20 -17 26 6 3 11 4 19 4
19 -1 -1 -10 -3 -19 -6z"/>
<path d="M2465 5360 c4 -6 11 -8 16 -5 14 9 11 15 -7 15 -8 0 -12 -5 -9 -10z"/>
<path d="M1450 5250 c0 -5 5 -10 10 -10 6 0 10 5 10 10 0 6 -4 10 -10 10 -5 0
-10 -4 -10 -10z"/>
<path d="M1302 5214 c-24 -17 -29 -34 -9 -34 12 0 47 34 47 45 0 9 -16 5 -38
-11z"/>
<path d="M1235 5150 c4 -6 11 -8 16 -5 14 9 11 15 -7 15 -8 0 -12 -5 -9 -10z"/>
<path d="M1140 5090 c-8 -5 -10 -10 -5 -10 6 0 17 5 25 10 8 5 11 10 5 10 -5
0 -17 -5 -25 -10z"/>
<path d="M990 4929 c0 -5 5 -7 10 -4 6 3 10 8 10 11 0 2 -4 4 -10 4 -5 0 -10
-5 -10 -11z"/>
<path d="M968 4893 c7 -3 16 -2 19 1 4 3 -2 6 -13 5 -11 0 -14 -3 -6 -6z"/>
<path d="M3330 4850 c0 -5 5 -10 10 -10 6 0 10 5 10 10 0 6 -4 10 -10 10 -5 0
-10 -4 -10 -10z"/>
<path d="M912 4832 c3 -12 1 -23 -6 -26 -6 -3 -2 -5 9 -3 23 3 28 38 6 45 -10
3 -12 -1 -9 -16z"/>
<path d="M3458 4768 c-31 -11 -39 -29 -10 -21 10 2 24 -3 31 -11 12 -14 10
-16 -7 -16 -25 0 -34 -11 -23 -29 6 -10 10 -9 14 3 4 9 14 16 23 16 13 0 14
-3 5 -14 -10 -11 -5 -22 21 -51 17 -21 34 -47 35 -58 2 -12 10 -28 18 -37 8
-9 13 -19 10 -22 -3 -3 6 -3 20 -1 30 6 33 23 5 30 -22 6 -27 19 -9 25 6 2 2
13 -10 27 -11 13 -18 28 -15 32 3 5 0 9 -5 9 -6 0 -11 9 -11 20 0 11 -7 23
-15 26 -10 4 -13 13 -10 25 5 14 1 19 -14 19 -11 0 -21 8 -23 18 -2 16 -7 17
-30 10z"/>
<path d="M3446 4641 c-3 -5 1 -14 9 -21 8 -7 13 -16 10 -20 -9 -14 26 -20 47
-9 19 10 18 12 -15 35 -40 27 -43 28 -51 15z"/>
<path d="M3513 4505 c0 -8 7 -15 15 -15 7 0 12 5 10 12 -6 18 -25 21 -25 3z"/>
<path d="M3605 4500 c3 -5 10 -10 16 -10 5 0 9 5 9 10 0 6 -7 10 -16 10 -8 0
-12 -4 -9 -10z"/>
<path d="M3574 4475 c3 -23 12 -26 13 -5 1 11 -2 20 -7 20 -4 0 -7 -7 -6 -15z"/>
<path d="M3540 4440 c11 -20 30 -28 30 -12 0 11 -22 32 -32 32 -5 0 -4 -9 2
-20z"/>
<path d="M3610 4430 c0 -5 5 -10 10 -10 6 0 10 5 10 10 0 6 -4 10 -10 10 -5 0
-10 -4 -10 -10z"/>
<path d="M3535 4084 c2 -22 9 -41 20 -46 25 -15 29 -3 14 38 -19 50 -37 54
-34 8z"/>
<path d="M3500 4080 c0 -5 5 -10 10 -10 6 0 10 5 10 10 0 6 -4 10 -10 10 -5 0
-10 -4 -10 -10z"/>
<path d="M3455 3977 c1 -18 5 -39 9 -45 12 -19 -2 -48 -24 -49 -13 -1 -18 2
-14 10 4 7 3 8 -1 4 -11 -10 -16 -39 -5 -32 4 3 11 -2 14 -11 4 -10 2 -13 -6
-8 -7 5 -9 0 -6 -14 4 -12 2 -22 -3 -22 -5 0 -9 -5 -9 -11 0 -6 7 -9 15 -5 21
8 20 -22 -2 -46 -9 -10 -12 -18 -6 -18 11 0 14 -32 3 -40 -12 -8 -20 -81 -9
-74 13 7 8 -28 -5 -38 -5 -3 -16 -4 -23 -1 -11 4 -12 8 -2 13 19 12 -68 95
-126 120 -27 11 -59 25 -70 31 -41 19 -195 -5 -195 -31 0 -7 -19 -10 -47 -9
-56 3 -177 -17 -213 -36 -14 -7 -40 -16 -59 -20 -19 -4 -51 -24 -72 -44 -21
-20 -51 -46 -68 -59 -17 -13 -31 -32 -31 -42 0 -10 -9 -21 -19 -25 -12 -4 -18
-12 -14 -21 3 -7 1 -14 -5 -14 -5 0 -12 -9 -15 -20 -3 -13 -1 -18 5 -13 13 7
4 -9 -29 -53 -13 -17 -23 -36 -23 -42 0 -7 -4 -12 -9 -12 -8 0 -28 -103 -23
-121 0 -4 4 -31 7 -60 4 -30 10 -59 15 -65 6 -6 5 -16 -3 -24 -6 -8 -2 -6 10
4 12 10 19 24 16 32 -3 8 1 14 10 14 8 0 15 6 14 13 0 6 1 27 1 45 2 29 4 32
21 23 20 -11 32 -3 44 32 4 10 22 24 41 32 19 8 37 19 41 25 3 5 11 10 16 10
6 0 -4 -12 -21 -26 -25 -22 -77 -102 -68 -105 30 -9 156 -8 174 1 14 8 42 11
70 7 29 -3 41 -1 33 4 -8 5 -31 9 -51 9 -34 0 -67 19 -36 21 7 0 3 5 -9 11
-26 12 -27 17 -14 51 11 28 63 71 100 82 l23 7 -18 -30 c-16 -28 -16 -35 -4
-72 15 -46 50 -78 92 -87 16 -3 28 -10 28 -15 0 -6 11 -7 26 -4 15 4 49 9 78
12 47 4 50 3 32 -11 -11 -8 -28 -15 -38 -15 -10 0 -18 -4 -18 -9 0 -5 -43 -8
-97 -7 -105 1 -145 -12 -104 -34 19 -9 25 -9 31 0 9 15 30 4 30 -16 0 -18 9
-18 32 3 17 15 19 15 36 0 10 -10 22 -14 26 -10 4 5 6 2 4 -6 -2 -7 3 -16 10
-18 6 -3 12 2 12 10 0 9 13 17 33 21 17 3 45 13 60 21 27 14 56 11 69 -9 11
-17 61 11 54 31 -5 12 -3 13 7 5 10 -9 17 -6 30 8 9 11 17 25 17 30 0 6 6 10
13 10 8 0 24 11 36 24 l22 23 -24 29 c-32 40 -38 60 -22 74 8 7 13 16 10 20
-3 4 2 11 11 14 10 4 13 13 9 25 -3 11 1 24 12 32 16 13 17 12 4 -4 -12 -15
-12 -17 3 -11 20 8 21 38 1 54 -9 7 -30 13 -48 13 -18 -1 -26 1 -19 4 6 3 12
10 12 16 0 26 38 38 87 27 32 -8 49 -8 57 0 7 7 6 10 -3 10 -8 0 -11 6 -7 16
4 9 2 22 -4 29 -13 16 12 45 38 45 15 0 15 -2 2 -10 -13 -8 -12 -10 3 -10 9 0
17 -7 17 -15 0 -8 -4 -15 -10 -15 -20 0 -9 -19 19 -36 17 -10 32 -29 36 -43
10 -43 39 -111 48 -111 5 0 5 -4 2 -10 -3 -5 -1 -10 5 -10 7 0 10 -6 7 -14 -3
-8 0 -20 8 -26 8 -6 11 -18 8 -25 -3 -9 5 -19 21 -26 32 -15 46 -4 20 16 -16
13 -16 14 -1 9 11 -4 17 -1 17 7 0 9 13 15 32 16 21 2 44 15 70 40 50 49 41
55 -15 9 -60 -49 -71 -48 -64 12 4 26 9 57 13 70 5 18 2 22 -17 22 -20 0 -21
1 -7 13 9 6 24 39 32 72 14 55 14 61 -1 73 -9 6 -13 12 -7 12 5 0 3 4 -5 9 -7
5 -10 14 -6 20 5 9 10 9 21 0 18 -15 18 -8 -2 41 -14 34 -21 40 -45 40 -16 0
-29 5 -29 10 0 5 6 9 12 8 7 -2 14 7 16 20 3 19 6 21 18 11 8 -6 16 -10 19 -8
8 9 -50 159 -62 159 -21 0 -25 -20 -9 -45 18 -28 21 -61 6 -70 -6 -4 -8 -15
-5 -26 5 -14 3 -17 -9 -13 -22 9 -30 48 -17 85 6 17 8 36 4 43 -4 6 -9 20 -10
31 -2 11 -8 22 -13 23 -6 2 -10 10 -10 17 0 21 -22 65 -32 65 -5 0 -6 -9 -3
-20 7 -22 -2 -60 -14 -60 -4 0 -8 14 -9 31 0 18 -5 36 -9 40 -5 5 -8 -6 -8
-24z m30 -197 c3 -5 1 -10 -4 -10 -6 0 -11 5 -11 10 0 6 2 10 4 10 3 0 8 -4
11 -10z m149 -226 c3 -8 2 -12 -4 -9 -6 3 -10 10 -10 16 0 14 7 11 14 -7z
m-534 -30 c0 -2 -9 -4 -20 -4 -11 0 -20 4 -20 9 0 5 9 7 20 4 11 -3 20 -7 20
-9z m-50 -18 c0 -2 -7 -6 -15 -10 -8 -3 -15 -1 -15 4 0 6 7 10 15 10 8 0 15
-2 15 -4z m160 -18 c0 -6 -7 -7 -16 -4 -9 3 -28 6 -42 7 -23 0 -24 2 -8 8 24
9 66 2 66 -11z m25 -28 c-3 -5 -12 -7 -20 -3 -21 7 -19 13 6 13 11 0 18 -4 14
-10z m389 -5 c-4 -8 -10 -12 -15 -9 -11 6 -2 24 11 24 5 0 7 -7 4 -15z m-705
-54 c18 -11 -1 -23 -43 -26 -17 -1 -46 -5 -65 -10 -23 -5 -31 -4 -27 4 4 6 17
11 29 11 12 0 31 7 41 15 22 17 44 19 65 6z m381 5 c0 -3 -4 -8 -10 -11 -5 -3
-10 -1 -10 4 0 6 5 11 10 11 6 0 10 -2 10 -4z m340 -16 c0 -5 -7 -7 -15 -4 -8
4 -12 10 -9 15 6 11 24 2 24 -11z m-640 -10 c-20 -13 -47 -13 -55 0 -4 6 9 10
32 10 28 0 34 -3 23 -10z m55 -20 c4 -6 -5 -10 -19 -10 -14 0 -26 5 -26 10 0
6 9 10 19 10 11 0 23 -4 26 -10z m75 -30 c0 -5 -4 -10 -10 -10 -5 0 -10 5 -10
10 0 6 5 10 10 10 6 0 10 -4 10 -10z m-232 -18 c2 -7 -6 -12 -17 -12 -21 0
-27 11 -14 24 9 9 26 2 31 -12z m180 -51 c3 -9 9 -18 13 -21 16 -11 -85 -100
-112 -100 -7 0 -1 13 14 28 15 15 27 38 27 49 0 12 5 25 10 28 7 4 7 13 0 24
-8 16 -6 17 16 13 14 -2 28 -12 32 -21z m-185 -68 c-7 -2 -19 -2 -25 0 -7 3
-2 5 12 5 14 0 19 -2 13 -5z m-263 -7 c0 -3 -4 -8 -10 -11 -5 -3 -10 -1 -10 4
0 6 5 11 10 11 6 0 10 -2 10 -4z m-43 -12 c-3 -3 -12 -4 -19 -1 -8 3 -5 6 6 6
11 1 17 -2 13 -5z"/>
<path d="M3060 3230 c0 -5 5 -10 11 -10 5 0 7 5 4 10 -3 6 -8 10 -11 10 -2 0
-4 -4 -4 -10z"/>
<path d="M3640 3881 c0 -5 5 -13 10 -16 6 -3 10 -2 10 4 0 5 -4 13 -10 16 -5
3 -10 2 -10 -4z"/>
<path d="M3568 3803 c7 -3 16 -2 19 1 4 3 -2 6 -13 5 -11 0 -14 -3 -6 -6z"/>
<path d="M1300 3651 c-8 -6 -26 -7 -42 -4 -18 4 -41 -3 -70 -19 -24 -14 -60
-28 -82 -31 -21 -3 -49 -13 -63 -22 -20 -13 -22 -19 -12 -31 6 -8 23 -14 38
-15 23 0 24 -1 6 -9 -20 -9 -20 -9 1 -9 11 -1 26 5 33 12 11 10 11 8 2 -10
-15 -30 -14 -35 9 -28 10 3 30 0 42 -7 25 -13 30 -15 54 -17 11 -1 14 -7 10
-17 -5 -12 -2 -15 11 -9 25 10 105 26 110 21 5 -4 -70 -50 -78 -48 -4 1 -30
-23 -58 -53 -33 -35 -49 -59 -45 -69 3 -9 10 -16 16 -16 5 0 8 -6 7 -12 -3
-26 1 -39 11 -33 25 16 7 -24 -21 -44 -31 -23 -33 -31 -5 -35 9 -1 29 -15 45
-30 26 -25 30 -26 44 -12 9 9 20 16 26 16 15 0 14 17 -1 24 -12 6 20 2 87 -9
17 -3 24 -2 16 1 -7 4 -21 14 -31 23 -10 9 -30 27 -44 39 -21 20 -24 27 -15
44 6 11 26 26 44 34 43 18 44 18 39 -3 -3 -10 6 -38 18 -63 31 -60 80 -86 136
-71 70 19 112 90 85 144 -7 15 -10 27 -6 26 26 -2 100 -48 112 -71 15 -26 14
-29 -13 -57 l-28 -30 38 -10 c46 -11 114 -7 144 9 20 11 20 13 6 33 -47 66
-36 78 24 27 45 -39 70 -39 70 0 0 17 7 33 18 39 15 9 14 10 -7 11 -16 0 -21
4 -18 14 9 23 -132 160 -168 162 -11 1 -48 13 -82 28 -51 21 -78 26 -149 26
-48 0 -85 3 -82 6 11 11 208 17 208 6 0 -6 14 -7 41 -1 27 6 45 6 54 -1 6 -5
15 -7 18 -4 16 16 -106 104 -144 104 -11 0 -22 7 -25 15 -4 8 -16 15 -28 15
-13 0 -26 3 -29 7 -4 3 -17 8 -30 9 -124 14 -156 15 -175 5 -14 -7 -23 -8 -27
-1 -8 12 -25 13 -45 1z m-190 -101 c0 -5 -5 -10 -11 -10 -5 0 -7 5 -4 10 3 6
8 10 11 10 2 0 4 -4 4 -10z m429 -146 c17 -4 31 -12 31 -19 0 -7 15 -17 33
-23 26 -9 17 -10 -48 -5 -52 4 -83 11 -88 19 -12 21 -24 17 -31 -10 -4 -16
-13 -24 -28 -24 -31 0 -155 -59 -162 -77 -6 -17 -46 -21 -46 -5 0 32 50 87 87
96 16 4 33 9 38 13 6 3 19 7 30 8 11 2 29 7 40 13 37 17 97 23 144 14z m6 -93
c7 -12 -12 -24 -25 -16 -11 7 -4 25 10 25 5 0 11 -4 15 -9z m185 -1 c0 -5 -5
-10 -11 -10 -5 0 -7 5 -4 10 3 6 8 10 11 10 2 0 4 -4 4 -10z m-195 -110 c3 -5
-1 -10 -10 -10 -9 0 -13 5 -10 10 3 6 8 10 10 10 2 0 7 -4 10 -10z m310 -20
c3 -5 -3 -10 -14 -10 -12 0 -21 5 -21 10 0 6 6 10 14 10 8 0 18 -4 21 -10z
m-78 -16 c-3 -3 -12 -4 -19 -1 -8 3 -5 6 6 6 11 1 17 -2 13 -5z"/>
<path d="M1645 3630 c3 -5 8 -10 11 -10 2 0 4 5 4 10 0 6 -5 10 -11 10 -5 0
-7 -4 -4 -10z"/>
<path d="M1115 3620 c4 -6 11 -8 16 -5 14 9 11 15 -7 15 -8 0 -12 -5 -9 -10z"/>
<path d="M754 3373 c19 -20 38 -34 42 -31 6 7 -55 67 -70 68 -4 0 8 -17 28
-37z"/>
<path d="M631 3328 c0 -13 -1 -30 -1 -38 -1 -22 6 -115 15 -188 10 -80 26 -93
39 -31 3 13 14 54 25 91 22 74 18 89 -41 157 -32 37 -36 38 -37 9z"/>
<path d="M3802 3288 c-22 -27 -74 -140 -79 -171 -4 -26 -2 -34 10 -34 9 0 18
11 22 25 6 23 7 24 25 7 11 -10 20 -26 20 -35 0 -10 11 -34 25 -54 14 -20 25
-49 25 -63 0 -17 4 -23 9 -18 12 13 17 182 7 214 -6 16 -5 21 3 17 16 -10 14
19 -6 75 -18 50 -39 63 -61 37z"/>
<path d="M3592 3178 c3 -7 13 -15 24 -17 16 -3 17 -1 5 13 -16 19 -34 21 -29
4z"/>
<path d="M1620 3091 c0 -5 6 -14 14 -20 16 -13 32 2 21 19 -8 12 -35 13 -35 1z"/>
<path d="M1365 3079 c-11 -17 1 -21 15 -4 8 9 8 15 2 15 -6 0 -14 -5 -17 -11z"/>
<path d="M1530 3070 c-8 -6 -28 -10 -45 -9 -57 2 -65 -1 -65 -21 0 -20 1 -20
31 -4 21 10 43 14 65 9 30 -5 34 -3 34 15 0 23 0 23 -20 10z"/>
<path d="M2660 3066 c0 -2 7 -6 15 -10 8 -3 15 -1 15 4 0 6 -7 10 -15 10 -8 0
-15 -2 -15 -4z"/>
<path d="M3723 3058 c-4 -7 -8 -23 -9 -36 l-1 -22 21 22 c14 15 16 23 8 26 -7
2 -10 8 -6 13 3 5 3 9 0 9 -3 0 -8 -6 -13 -12z"/>
<path d="M2511 3005 c13 -13 28 -25 33 -25 5 0 -1 11 -14 25 -13 14 -28 25
-33 25 -5 0 1 -11 14 -25z"/>
<path d="M2397 2999 c7 -7 15 -10 18 -7 3 3 -2 9 -12 12 -14 6 -15 5 -6 -5z"/>
<path d="M2642 2993 c-6 -2 -10 -9 -7 -13 7 -11 35 -2 35 11 0 10 -8 10 -28 2z"/>
<path d="M2765 2991 c-4 -7 1 -9 12 -5 15 5 15 4 3 -4 -10 -8 -18 -8 -28 0 -9
8 -16 8 -24 0 -8 -8 -5 -14 13 -21 69 -27 135 -41 202 -41 62 0 83 4 118 25
24 14 53 25 64 26 11 0 15 3 8 5 -6 3 -29 1 -49 -5 -21 -6 -44 -7 -52 -2 -10
6 -21 4 -31 -6 -9 -10 -25 -13 -45 -9 -56 11 -151 33 -167 40 -10 4 -20 3 -24
-3z"/>
<path d="M3699 2953 c-6 -32 -3 -63 4 -63 5 0 4 -7 -3 -15 -11 -13 -9 -19 10
-35 13 -11 26 -20 30 -20 12 0 20 28 14 44 -3 8 -1 17 5 21 17 10 13 33 -11
55 -22 20 -47 27 -49 13z"/>
<path d="M1528 2923 c12 -2 30 -2 40 0 9 3 -1 5 -23 4 -22 0 -30 -2 -17 -4z"/>
<path d="M1423 2913 c15 -2 39 -2 55 0 15 2 2 4 -28 4 -30 0 -43 -2 -27 -4z"/>
<path d="M3640 2646 c0 -9 -8 -31 -17 -49 -9 -18 -18 -34 -18 -37 -1 -3 -5
-26 -9 -52 -5 -29 -14 -48 -21 -48 -12 0 -31 -57 -39 -114 -2 -13 -16 -24 -42
-32 -21 -6 -33 -12 -26 -13 6 -1 12 -8 12 -17 0 -13 -2 -13 -17 2 -12 12 -18
13 -21 4 -3 -7 1 -16 8 -20 7 -4 9 -13 5 -19 -5 -9 -10 -9 -20 -1 -11 9 -17 7
-27 -9 -7 -12 -19 -21 -26 -21 -7 0 -10 -5 -7 -10 4 -6 11 -8 16 -5 24 15 5
-12 -20 -30 -16 -10 -29 -22 -29 -25 3 -17 -35 -80 -48 -80 -16 0 -62 -41 -65
-58 -5 -21 -13 -32 -24 -32 -8 0 -13 -10 -13 -22 4 -58 -2 -78 -21 -78 -11 0
-23 -4 -26 -10 -3 -5 0 -7 8 -4 8 3 17 -2 21 -12 5 -13 2 -15 -14 -11 -17 4
-20 0 -20 -29 0 -19 4 -34 10 -34 5 0 -2 -11 -16 -25 -32 -32 -49 -32 -28 0
18 28 12 45 -19 45 -22 1 -22 1 2 14 24 13 24 14 4 24 -11 6 -24 8 -28 4 -5
-4 -5 -2 -2 5 4 6 17 9 29 5 20 -5 21 -4 7 12 -42 51 -52 58 -75 53 -17 -3
-28 1 -35 15 -6 11 -26 26 -44 34 -19 7 -36 18 -40 24 -9 15 -22 12 -29 -7 -4
-9 -1 -20 6 -25 9 -5 10 -8 1 -8 -7 0 -17 8 -22 18 -9 15 -13 14 -34 -12 l-24
-29 -16 23 c-9 13 -14 27 -11 32 3 4 -7 13 -23 19 -15 6 -28 9 -29 7 0 -2 -8
3 -17 11 -10 8 -17 9 -17 3 0 -6 8 -16 18 -21 11 -7 12 -10 3 -11 -7 0 -11 -6
-8 -14 4 -9 0 -13 -9 -12 -9 1 -29 26 -44 55 -26 46 -29 61 -26 121 3 55 1 68
-10 63 -8 -3 -11 -9 -8 -14 3 -5 0 -9 -5 -9 -6 0 -11 9 -11 20 0 19 -2 20 -29
5 -16 -8 -31 -20 -33 -26 -2 -7 -47 -22 -100 -34 -55 -12 -94 -17 -90 -11 18
29 5 31 -49 8 -32 -15 -56 -28 -54 -31 3 -2 0 -10 -5 -17 -8 -8 -6 -17 5 -28
15 -14 14 -18 -10 -40 -54 -50 -125 -37 -229 42 -28 22 -61 45 -74 52 -13 6
-32 20 -43 31 -20 20 -55 27 -44 9 3 -5 2 -10 -4 -10 -5 0 -9 -14 -9 -30 1
-17 -6 -38 -15 -48 -10 -11 -13 -22 -7 -32 5 -9 5 -22 0 -30 -7 -12 -13 -12
-33 -1 -20 11 -28 11 -46 0 -11 -8 -21 -17 -21 -21 0 -12 12 -9 29 6 25 22 47
5 31 -24 -6 -12 -9 -28 -6 -36 3 -8 -1 -14 -8 -14 -17 0 -38 24 -29 33 3 4 -3
7 -15 7 -12 0 -22 -4 -22 -9 0 -5 -3 -18 -7 -28 -6 -16 -5 -16 10 -4 11 9 17
10 17 2 0 -6 11 -11 25 -11 16 0 25 -6 25 -15 0 -8 7 -15 15 -15 9 0 12 -6 9
-15 -5 -11 1 -15 19 -15 14 0 27 -7 31 -15 6 -16 36 -21 36 -6 0 14 42 4 51
-11 13 -21 -9 -38 -36 -28 -12 5 -45 6 -71 3 -80 -8 -145 -4 -177 12 -24 12
-32 13 -38 3 -5 -7 -16 -13 -25 -13 -25 0 -28 -22 -4 -28 11 -3 20 -13 20 -22
0 -9 -4 -13 -10 -10 -5 3 -10 1 -10 -4 0 -15 56 -14 80 1 16 10 26 10 52 -3
78 -38 88 -42 95 -36 3 4 13 1 21 -5 8 -7 20 -13 26 -14 6 0 19 -2 29 -2 9 -1
17 -9 17 -17 0 -9 6 -12 15 -9 9 4 15 0 15 -10 0 -18 15 -22 25 -6 15 24 36
10 34 -22 -3 -52 0 -70 11 -63 6 4 8 10 5 15 -3 5 -1 11 4 14 5 3 7 15 4 26
-6 23 5 25 57 10 33 -9 150 -22 195 -22 48 1 112 9 121 15 6 3 14 4 18 0 11
-11 7 -40 -6 -41 -11 -1 -30 -4 -73 -11 -5 -1 2 -13 18 -26 15 -13 27 -29 27
-35 0 -18 18 -10 43 20 14 17 33 30 41 30 9 0 16 6 16 13 0 8 4 7 10 -3 8 -12
10 -12 10 -1 0 8 3 11 7 8 10 -10 32 13 27 27 -4 9 3 13 19 11 29 -3 113 24
147 48 25 17 96 24 86 8 -7 -10 23 -20 42 -14 6 3 10 9 6 14 -4 8 25 14 49 10
4 0 7 8 7 19 0 33 48 4 55 -34 9 -42 32 -76 51 -76 12 0 15 7 12 25 -6 28 9
45 18 21 8 -22 -13 -55 -42 -62 -19 -5 -22 -9 -13 -20 6 -8 8 -25 5 -38 -4
-15 -1 -26 6 -28 6 -2 8 -10 4 -17 -5 -7 -15 -10 -23 -7 -9 4 -13 1 -10 -6 2
-7 -4 -22 -15 -34 -15 -17 -17 -26 -9 -47 8 -22 7 -28 -7 -35 -9 -5 -23 -7
-29 -5 -7 3 -13 -2 -13 -11 0 -9 -4 -16 -10 -16 -14 0 -13 -37 2 -46 7 -5 4
-10 -10 -15 -12 -5 -22 -16 -22 -24 0 -9 4 -14 9 -11 4 3 15 0 24 -7 14 -11
14 -14 2 -31 -14 -19 -15 -19 -35 -1 -11 10 -23 15 -27 12 -3 -4 -3 -7 2 -7 4
0 2 -7 -5 -15 -14 -17 -6 -50 10 -40 5 3 10 -1 10 -11 0 -17 -22 -16 -62 1
-11 4 -18 3 -18 -4 0 -7 14 -17 32 -23 28 -10 29 -12 14 -24 -16 -11 -16 -14
5 -33 22 -20 22 -21 3 -21 -29 0 -35 -10 -17 -28 17 -18 4 -28 -22 -18 -9 3
-16 5 -18 4 -1 -1 -12 4 -24 11 -20 10 -23 9 -23 -9 0 -11 7 -23 15 -26 20 -8
19 -24 -1 -24 -8 0 -12 -5 -9 -10 8 -13 -13 -40 -31 -40 -8 0 -14 9 -14 21 0
11 -4 17 -10 14 -5 -3 -10 -19 -10 -35 0 -21 -6 -29 -24 -34 -14 -3 -32 -3
-40 0 -9 3 -16 2 -16 -4 0 -12 23 -22 53 -23 12 0 17 -3 10 -5 -7 -3 -10 -11
-7 -19 8 -19 -11 -27 -59 -27 -23 0 -35 -2 -27 -5 22 -8 39 -33 33 -49 -7 -18
-33 -18 -33 -1 0 30 -21 35 -46 10 -27 -27 -31 -38 -9 -29 24 9 39 -30 21 -56
-14 -19 -16 -20 -22 -5 -7 18 -34 24 -34 7 0 -5 5 -10 11 -10 6 0 4 -7 -5 -15
-20 -20 -26 -19 -26 5 0 12 -7 20 -16 20 -12 0 -15 -7 -12 -30 5 -31 1 -35
-18 -22 -25 17 -22 40 8 67 16 15 27 29 25 32 -9 8 -65 -39 -70 -59 -4 -13
-12 -18 -24 -16 -14 3 -17 11 -15 41 2 20 0 37 -5 37 -4 0 -21 -18 -37 -40
-25 -33 -32 -37 -44 -27 -12 9 -16 9 -19 0 -3 -7 -14 -13 -24 -13 -11 0 -29
-4 -39 -10 -13 -7 -19 -6 -24 5 -7 18 -37 20 -54 3 -9 -9 -19 -5 -42 17 -16
16 -32 36 -35 46 -4 11 -12 16 -20 12 -8 -3 -18 2 -21 11 -8 22 -54 21 -54 -1
0 -14 -4 -12 -25 7 -14 13 -23 30 -20 38 2 7 -7 25 -21 39 -18 18 -22 28 -14
33 8 5 8 10 2 14 -5 3 -26 -5 -46 -19 -26 -17 -36 -20 -36 -11 0 8 13 20 29
27 27 12 41 34 41 67 0 21 -15 13 -34 -19 l-19 -32 -32 39 c-26 31 -31 42 -22
53 9 11 9 15 0 18 -24 9 -13 23 18 23 17 0 28 4 24 10 -3 6 -24 10 -46 10 -29
0 -39 4 -39 16 0 8 4 13 9 10 9 -6 37 21 29 29 -6 6 -58 -18 -58 -27 0 -4 -9
0 -20 9 -14 12 -16 19 -8 25 9 5 5 10 -11 16 -16 6 -20 11 -13 16 18 11 14 28
-5 22 -10 -3 -29 1 -42 8 l-25 14 32 7 c51 11 52 28 1 20 -36 -6 -42 -5 -31 6
19 20 15 29 -13 29 -24 0 -34 13 -17 24 14 9 1 86 -15 86 -10 0 -13 6 -9 16 3
9 6 30 6 49 0 24 5 34 19 38 13 3 19 13 18 26 -1 21 -17 31 -17 11 0 -16 -40
-12 -46 5 -4 8 -10 12 -15 9 -13 -8 -11 10 3 24 9 9 9 15 0 24 -18 18 -15 27
8 21 11 -3 20 0 20 6 0 6 -11 11 -25 11 -18 0 -25 5 -25 20 0 10 -6 23 -12 27
-25 16 -36 51 -34 102 2 28 0 51 -3 51 -4 0 -12 14 -18 30 -6 17 -19 30 -28
30 -11 0 -15 -5 -11 -15 3 -8 1 -15 -4 -15 -18 0 -11 48 7 53 17 4 17 5 1 11
-20 9 -71 -32 -64 -51 3 -7 1 -13 -5 -13 -12 0 -28 41 -22 58 3 7 -3 12 -13
12 -16 0 -17 2 -4 10 12 8 10 10 -10 10 -23 1 -24 2 -7 14 10 8 15 20 11 30
-7 18 -24 22 -24 6 0 -5 -5 -10 -11 -10 -8 0 -10 14 -6 40 3 28 1 40 -7 40 -7
0 -13 6 -13 14 0 8 6 12 13 9 9 -3 11 2 7 16 -3 12 -11 21 -18 21 -6 0 -17 11
-23 25 -6 14 -16 25 -22 25 -7 0 -8 -6 -1 -19 6 -10 7 -21 4 -25 -3 -3 1 -6
10 -6 10 0 17 -6 17 -13 0 -15 -46 -15 -61 0 -8 8 -8 17 0 31 14 27 14 32 -4
32 -8 0 -15 6 -15 14 0 18 -32 26 -54 14 -9 -5 -16 -16 -16 -23 0 -8 -8 -15
-17 -15 -14 0 -13 -3 5 -16 15 -10 22 -25 22 -49 0 -24 5 -35 18 -38 13 -3 11
-6 -9 -11 -26 -7 -59 -56 -39 -56 18 0 7 -55 -14 -72 -28 -22 -13 -35 18 -15
20 14 26 14 35 3 6 -7 9 -20 5 -29 -4 -12 -1 -14 14 -10 24 6 38 -23 15 -31
-10 -4 -13 -14 -9 -31 7 -27 3 -30 -22 -16 -12 7 -24 3 -42 -12 -15 -12 -18
-18 -8 -14 11 4 21 0 27 -10 8 -14 12 -15 25 -4 17 14 51 7 42 -8 -3 -5 0 -13
7 -19 13 -11 13 -51 2 -89 -8 -25 -62 -63 -90 -63 -14 0 -15 -3 -5 -15 15 -18
40 -20 40 -2 0 7 18 20 40 30 52 22 55 22 28 -5 -21 -21 -21 -23 -5 -26 14 -3
16 -7 6 -18 -6 -8 -18 -14 -25 -14 -8 0 -14 -6 -14 -14 0 -7 -9 -16 -20 -19
-27 -7 -27 -53 -1 -60 16 -4 19 -12 17 -46 -3 -51 -13 -61 -26 -27 -9 25 -35
44 -46 34 -2 -3 7 -21 20 -40 28 -41 25 -85 -7 -97 -14 -6 -17 -10 -8 -15 9
-6 8 -11 -6 -21 -17 -13 -16 -14 5 -8 12 3 22 12 22 19 0 15 49 39 59 28 3 -3
-2 -11 -12 -18 -9 -7 -17 -15 -17 -18 0 -6 31 -2 53 7 10 4 20 5 24 2 13 -14
-10 -40 -47 -54 -22 -9 -40 -19 -40 -23 0 -5 -10 -10 -23 -14 -26 -6 -82 -51
-82 -65 0 -5 -3 -13 -7 -17 -5 -4 -8 -2 -8 5 0 14 -32 -2 -118 -59 -34 -22
-64 -40 -67 -40 -6 0 -125 -78 -140 -93 -6 -6 7 -7 35 -3 30 4 38 3 25 -3 -12
-5 -27 -16 -34 -25 -7 -9 -19 -16 -27 -16 -7 0 -17 -6 -21 -13 -4 -7 -34 -23
-66 -35 -59 -22 -141 -72 -119 -72 7 0 33 9 58 21 25 11 55 19 67 17 18 -3 14
-7 -22 -31 -29 -19 -41 -33 -37 -44 5 -11 2 -14 -9 -9 -9 3 -18 -1 -21 -9 -4
-8 -13 -15 -21 -15 -8 0 -12 -4 -8 -9 3 -6 14 -8 25 -6 12 2 18 0 14 -6 -3 -6
-9 -8 -12 -5 -3 3 -11 1 -19 -5 -10 -9 -10 -15 -2 -25 15 -18 38 -18 60 2 18
16 59 12 59 -6 0 -5 -7 -7 -15 -4 -9 4 -15 0 -15 -9 0 -20 -29 -30 -46 -16
-10 8 -12 4 -9 -21 4 -28 2 -31 -15 -27 -22 6 -26 -3 -9 -20 8 -8 -2 -21 -37
-47 -26 -20 -43 -36 -38 -36 12 0 -37 -45 -59 -53 -9 -3 -16 -10 -15 -14 2 -5
-7 -19 -19 -32 -16 -18 -20 -28 -12 -37 7 -8 6 -13 -2 -16 -7 -2 -13 -16 -13
-30 -1 -23 1 -25 14 -15 25 19 83 79 118 122 29 36 32 37 32 16 0 -12 -16 -41
-35 -64 -27 -31 -32 -43 -23 -54 8 -10 7 -18 -7 -33 -9 -10 -22 -17 -28 -16
-7 2 -9 1 -4 -1 4 -3 7 -13 7 -24 0 -10 1 -19 3 -19 1 0 35 -3 75 -7 66 -5 72
-4 72 13 0 13 8 19 25 20 18 2 25 -3 25 -17 0 -18 12 -19 309 -19 238 0 310 3
314 13 4 9 6 9 6 0 1 -10 53 -13 227 -13 221 0 226 1 244 22 l17 22 7 -22 c7
-22 12 -22 128 -21 85 1 117 4 109 12 -7 7 -5 14 7 23 23 18 51 19 34 2 -28
-28 -13 -38 54 -38 62 0 65 1 59 21 -6 18 -4 20 14 14 12 -4 21 -2 21 4 0 14
37 14 45 1 3 -6 -3 -10 -14 -10 -12 0 -21 -7 -21 -15 0 -24 57 -19 70 5 10 19
41 29 39 13 -6 -36 19 -40 116 -18 23 5 26 4 15 -4 -11 -8 37 -11 173 -10 169
0 187 2 187 17 1 16 2 16 14 0 12 -16 71 -17 884 -17 l872 0 0 234 0 233 -30
7 c-32 7 -51 25 -26 25 8 0 18 -5 21 -10 13 -21 35 -10 35 18 0 22 -9 32 -52
57 -29 17 -57 32 -62 34 -5 2 -17 11 -27 20 -40 36 -51 43 -64 38 -7 -3 -16 1
-19 9 -3 8 -25 24 -49 34 -24 11 -54 28 -68 38 -43 32 -146 82 -154 74 -5 -4
-5 -2 -1 5 4 7 -12 22 -43 38 -27 15 -51 35 -54 45 -3 10 -23 30 -45 44 -22
14 -43 30 -47 36 -3 5 -14 10 -24 10 -10 0 -30 9 -44 20 -14 11 -32 20 -40 20
-8 0 -17 7 -21 15 -3 8 -10 15 -16 15 -16 0 -47 35 -42 48 2 7 -6 12 -20 13
l-23 1 24 7 c14 4 27 13 29 20 3 10 -1 12 -17 8 -24 -6 -29 8 -5 17 8 3 12 10
9 16 -4 6 2 7 18 1 13 -5 32 -9 42 -8 14 2 19 -5 20 -22 0 -19 6 -24 34 -27
l34 -4 -39 40 c-22 23 -45 38 -53 35 -19 -8 -71 17 -71 34 0 9 4 10 13 4 17
-13 70 -15 62 -3 -8 14 38 13 52 -1 6 -6 19 -9 29 -7 14 2 10 8 -18 21 -29 14
-38 24 -38 42 0 14 -4 25 -10 25 -5 0 -10 7 -10 16 0 12 7 14 30 9 28 -6 30
-5 30 24 0 17 -4 31 -10 31 -5 0 -10 9 -10 20 0 21 33 29 45 10 3 -5 1 -10 -4
-10 -27 0 -8 -17 20 -18 17 0 38 -6 47 -13 14 -11 15 -11 5 0 -6 7 -9 19 -7
26 6 15 -96 125 -116 125 -10 0 -11 3 -3 11 9 9 21 6 50 -11 l38 -22 -33 35
c-27 28 -30 36 -18 40 10 4 13 13 9 23 -4 12 -3 15 6 10 6 -4 9 -16 6 -26 -4
-14 2 -23 25 -35 18 -9 33 -15 34 -13 1 2 7 18 13 36 9 25 9 32 -2 32 -7 0
-16 -7 -19 -16 -3 -8 -10 -12 -16 -9 -15 9 -12 25 5 25 8 0 15 7 15 15 0 18
12 19 27 4 14 -14 29 -5 44 24 9 17 9 19 -1 11 -16 -15 -53 -5 -46 12 3 9 -1
14 -12 14 -10 0 -34 8 -54 19 -28 14 -34 21 -25 30 17 17 34 13 52 -11 15 -22
17 -22 26 -5 8 14 18 17 42 11 27 -6 30 -5 19 8 -6 8 -26 15 -44 16 -35 1 -60
25 -51 48 3 9 -2 14 -13 14 -14 0 -15 3 -6 12 9 9 16 8 30 -5 10 -9 26 -17 36
-17 9 0 19 -7 22 -15 4 -8 10 -15 15 -15 4 0 6 7 3 15 -4 10 0 15 16 15 11 0
18 5 15 10 -3 6 -17 7 -31 4 -17 -4 -24 -2 -24 9 0 17 -34 31 -72 28 -18 -1
-30 5 -38 18 -9 18 -8 21 13 21 12 0 28 -5 35 -12 9 -9 12 -8 12 5 0 9 5 17
10 17 6 0 10 -12 10 -27 0 -20 3 -24 9 -14 6 10 13 11 29 2 11 -6 31 -11 44
-11 l22 0 -24 17 c-14 10 -34 16 -45 15 -17 -2 -17 -1 -5 7 10 7 11 11 3 11
-7 0 -13 6 -13 14 0 8 -5 18 -10 21 -6 4 -9 1 -8 -7 4 -20 -49 -22 -78 -3 -34
22 -31 38 6 30 18 -4 30 -3 30 4 0 5 -12 11 -27 13 -14 2 -28 9 -31 16 -2 7 2
10 12 6 11 -4 16 -1 16 10 0 9 -5 16 -12 16 -6 0 -4 7 5 18 10 10 17 22 17 25
0 13 -31 7 -36 -7 -9 -24 -31 -7 -31 24 0 32 11 40 21 15 6 -16 62 -19 106 -5
25 8 25 8 2 9 -27 1 -62 18 -62 30 0 4 19 5 43 1 37 -5 43 -4 44 12 2 21 -8
23 -26 6 -10 -11 -16 -8 -32 11 -10 13 -19 29 -19 37 0 8 -1 17 -2 20 -2 3 20
8 47 10 68 5 94 36 87 102 -2 26 -9 53 -15 60 -7 9 -4 12 9 12 16 0 16 2 -4
16 -12 8 -20 20 -17 25 4 5 0 12 -8 15 -15 5 -15 68 -1 132 5 25 -21 62 -29
39 -3 -9 -8 -9 -20 2 -15 12 -17 11 -17 -3z m-70 -430 c-1 -21 -1 -21 -20 3
-11 12 -17 27 -14 33 9 14 34 -12 34 -36z m-10 -66 c0 -5 -4 -10 -9 -10 -6 0
-13 5 -16 10 -3 6 1 10 9 10 9 0 16 -4 16 -10z m-1279 -53 c-13 -13 -26 -3
-16 12 3 6 11 8 17 5 6 -4 6 -10 -1 -17z m-1227 -196 c16 -17 16 -19 -6 -26
-60 -18 -81 -9 -51 24 23 25 36 25 57 2z m1771 -1 c3 -5 2 -10 -4 -10 -5 0
-13 5 -16 10 -3 6 -2 10 4 10 5 0 13 -4 16 -10z m705 -20 c8 -5 11 -12 8 -15
-4 -4 -17 0 -30 9 -24 17 -5 23 22 6z m-800 -9 c0 -5 10 -7 23 -4 18 5 20 3
10 -7 -9 -10 -10 -17 -1 -27 17 -21 1 -27 -25 -10 -28 18 -42 57 -21 57 8 0
14 -4 14 -9z m112 -39 c3 -11 0 -19 -7 -19 -7 0 -17 9 -24 19 -9 15 -8 18 8
18 10 0 21 -8 23 -18z m728 8 c0 -5 -7 -7 -15 -4 -8 4 -15 8 -15 10 0 2 7 4
15 4 8 0 15 -4 15 -10z m-2566 -31 c-5 -9 -34 -13 -34 -5 0 2 3 12 6 20 5 13
9 14 20 5 8 -6 11 -15 8 -20z m1636 21 c0 -5 -5 -10 -11 -10 -6 0 -9 -7 -6
-15 7 -18 -11 -31 -25 -17 -7 7 -6 17 1 31 12 21 41 29 41 11z m870 0 c0 -5
-7 -7 -15 -4 -8 4 -15 8 -15 10 0 2 7 4 15 4 8 0 15 -4 15 -10z m-800 -15 c6
-8 10 -20 7 -27 -4 -9 -6 -7 -6 4 -1 11 -7 15 -21 11 -19 -5 -27 7 -13 20 10
11 19 8 33 -8z m-715 -53 c-10 -11 -33 20 -28 39 5 18 7 18 19 -7 8 -15 12
-29 9 -32z m285 -2 c14 -26 -19 -44 -80 -41 -57 2 -138 25 -122 35 7 4 16 4
22 1 5 -3 18 -1 29 5 15 7 23 6 35 -5 19 -20 35 -19 71 5 36 24 32 24 45 0z
m737 5 c3 -9 3 -19 -1 -22 -8 -9 -37 18 -30 28 8 14 24 11 31 -6z m576 8 c-7
-2 -19 -2 -25 0 -7 3 -2 5 12 5 14 0 19 -2 13 -5z m-1258 -22 c-3 -6 -11 -8
-17 -5 -6 4 -5 9 3 15 16 10 23 4 14 -10z m420 1 c-3 -3 -11 0 -18 7 -9 10 -8
11 6 5 10 -3 15 -9 12 -12z m335 4 c0 -2 -7 -6 -15 -10 -8 -3 -15 -1 -15 4 0
6 7 10 15 10 8 0 15 -2 15 -4z m-1185 -16 c3 -5 2 -10 -4 -10 -5 0 -13 5 -16
10 -3 6 -2 10 4 10 5 0 13 -4 16 -10z m1043 -7 c-5 -26 -38 -29 -38 -4 0 15 6
21 21 21 14 0 19 -5 17 -17z m-988 -15 c0 -6 -7 -7 -16 -4 -9 3 -18 6 -20 6
-3 0 -3 4 1 10 7 11 35 2 35 -12z m1597 -7 c7 -9 13 -21 13 -28 0 -8 12 -10
36 -6 29 5 36 3 32 -8 -3 -8 -12 -14 -21 -13 -73 3 -77 5 -77 22 0 9 -9 23
-20 30 -11 7 -20 17 -20 23 0 14 42 0 57 -20z m-1469 -15 c3 -3 -3 -7 -14 -7
-39 -3 -68 1 -78 11 -6 6 6 8 38 6 26 -3 50 -7 54 -10z m972 4 c0 -5 -5 -10
-11 -10 -5 0 -7 5 -4 10 3 6 8 10 11 10 2 0 4 -4 4 -10z m-2040 -30 c0 -5 -7
-10 -15 -10 -8 0 -15 5 -15 10 0 6 7 10 15 10 8 0 15 -4 15 -10z m1948 -2 c16
-16 15 -28 -2 -28 -8 0 -17 -6 -19 -12 -3 -7 -4 2 -4 19 2 36 7 39 25 21z m95
-15 c3 -5 -1 -14 -9 -21 -12 -11 -14 -9 -14 8 0 20 14 27 23 13z m427 -13 c7
-13 7 -20 1 -20 -6 0 -15 9 -21 20 -7 13 -7 20 -1 20 6 0 15 -9 21 -20z
m-2480 -10 c0 -5 -5 -10 -11 -10 -5 0 -7 5 -4 10 3 6 8 10 11 10 2 0 4 -4 4
-10z m2530 -24 c0 -17 -14 -29 -23 -20 -8 8 3 34 14 34 5 0 9 -6 9 -14z
m-1100 -16 c0 -5 -4 -10 -10 -10 -5 0 -10 5 -10 10 0 6 5 10 10 10 6 0 10 -4
10 -10z m610 -20 c8 -16 8 -20 -4 -20 -8 0 -19 -7 -24 -16 -6 -10 -12 -12 -16
-6 -3 5 1 15 9 22 7 6 11 18 8 26 -8 22 15 17 27 -6z m-1980 1 c0 -12 -20 -25
-27 -18 -7 7 6 27 18 27 5 0 9 -4 9 -9z m2370 -17 c0 -16 -16 -19 -25 -4 -8
13 4 32 16 25 5 -4 9 -13 9 -21z m85 -44 c3 -5 1 -10 -4 -10 -6 0 -11 5 -11
10 0 6 2 10 4 10 3 0 8 -4 11 -10z m-63 -32 c-13 -13 -32 -2 -32 18 0 12 4 13
21 3 14 -7 18 -14 11 -21z m108 2 c0 -5 -4 -10 -10 -10 -5 0 -10 5 -10 10 0 6
5 10 10 10 6 0 10 -4 10 -10z m-2490 -10 c0 -5 -7 -10 -16 -10 -8 0 -12 5 -9
10 3 6 10 10 16 10 5 0 9 -4 9 -10z m-20 -40 c0 -5 -4 -10 -10 -10 -5 0 -10 5
-10 10 0 6 5 10 10 10 6 0 10 -4 10 -10z m2450 -9 c0 -11 -39 -21 -45 -11 -2
4 -2 10 2 14 10 9 43 7 43 -3z m-2375 -20 c3 -5 1 -12 -5 -16 -5 -3 -10 -14
-10 -25 0 -16 -27 -36 -36 -27 -5 5 30 76 38 77 4 0 9 -4 13 -9z m1805 -1 c0
-5 -4 -10 -10 -10 -5 0 -10 5 -10 10 0 6 5 10 10 10 6 0 10 -4 10 -10z m-1884
-35 c-4 -14 -13 -25 -20 -25 -8 0 -16 -6 -19 -12 -4 -10 -7 -10 -17 -1 -11 10
-10 13 3 18 9 4 14 12 11 19 -3 7 5 17 18 23 29 13 32 10 24 -22z m2405 -37
c9 -10 20 -18 25 -18 5 0 10 -11 10 -25 2 -27 -3 -30 -26 -15 -13 9 -13 11 0
20 13 9 13 10 0 10 -8 0 -21 9 -28 20 -7 11 -21 20 -32 20 -11 0 -20 5 -20 10
0 16 53 0 71 -22z m-2484 16 c-3 -3 -12 -4 -19 -1 -8 3 -5 6 6 6 11 1 17 -2
13 -5z m2443 -34 c0 -5 -4 -10 -10 -10 -5 0 -10 5 -10 10 0 6 5 10 10 10 6 0
10 -4 10 -10z m-70 -10 c0 -5 -5 -10 -11 -10 -5 0 -7 5 -4 10 3 6 8 10 11 10
2 0 4 -4 4 -10z m-2264 -35 c9 -8 25 -15 37 -15 20 0 19 -2 -7 -15 -36 -19
-42 -19 -50 3 -3 9 -9 23 -12 30 -8 17 14 15 32 -3z m2341 9 c-3 -3 -12 -4
-19 -1 -8 3 -5 6 6 6 11 1 17 -2 13 -5z m-2408 -29 c3 -17 2 -17 -13 -3 -19
20 -21 31 -3 26 6 -3 14 -13 16 -23z m2293 -27 c-7 -7 -12 -8 -12 -2 0 14 12
26 19 19 2 -3 -1 -11 -7 -17z m-292 2 c13 -9 13 -10 0 -10 -8 0 -22 5 -30 10
-13 9 -13 10 0 10 8 0 22 -5 30 -10z m-2036 -15 c-5 -12 0 -15 23 -13 16 1 33
-1 39 -4 6 -4 23 2 40 13 34 22 70 27 42 5 -10 -7 -18 -18 -18 -24 0 -5 -7
-12 -15 -16 -8 -3 -12 -12 -9 -21 9 -23 -12 -18 -29 8 -15 22 -15 22 -30 2
-15 -20 -15 -20 -75 11 -7 3 19 54 27 54 6 0 8 -7 5 -15z m76 11 c0 -3 -4 -8
-10 -11 -5 -3 -10 -1 -10 4 0 6 5 11 10 11 6 0 10 -2 10 -4z m2351 -29 c-13
-13 -26 -3 -16 12 3 6 11 8 17 5 6 -4 6 -10 -1 -17z m-511 -27 c0 -5 -2 -10
-4 -10 -3 0 -8 5 -11 10 -3 6 -1 10 4 10 6 0 11 -4 11 -10z m437 4 c-3 -3 -12
-4 -19 -1 -8 3 -5 6 6 6 11 1 17 -2 13 -5z m-2503 -280 c20 -8 11 -24 -15 -24
-10 0 -19 7 -19 15 0 16 9 19 34 9z m1833 -70 c-9 -9 -28 6 -21 18 4 6 10 6
17 -1 6 -6 8 -13 4 -17z m-1762 6 c-3 -5 -14 -10 -23 -10 -15 0 -15 2 -2 10
20 13 33 13 25 0z m-30 -50 c-3 -5 -13 -10 -21 -10 -8 0 -12 5 -9 10 3 6 13
10 21 10 8 0 12 -4 9 -10z m-25 -39 c12 -23 3 -51 -16 -51 -8 0 -14 -9 -14
-20 0 -11 -7 -20 -16 -20 -11 0 -14 6 -9 23 4 12 11 26 16 32 5 5 9 19 9 32 0
28 16 30 30 4z m1050 -91 c0 -7 -13 -7 -38 -1 -2 1 -1 5 3 11 6 10 35 2 35
-10z m-983 -6 c-3 -3 -12 -4 -19 -1 -8 3 -5 6 6 6 11 1 17 -2 13 -5z m-117
-14 c0 -5 -5 -10 -11 -10 -5 0 -7 5 -4 10 3 6 8 10 11 10 2 0 4 -4 4 -10z
m2470 -35 c0 -8 -4 -15 -10 -15 -5 0 -10 7 -10 15 0 8 5 15 10 15 6 0 10 -7
10 -15z m-2502 -71 c-12 -12 -14 -11 -15 8 -1 12 3 29 10 37 10 12 13 11 15
-9 2 -12 -2 -29 -10 -36z m221 3 c-2 -1 -15 -11 -29 -22 l-25 -20 19 23 c11
12 24 22 29 22 6 0 8 -1 6 -3z m2478 -73 c-3 -3 -12 -4 -19 -1 -8 3 -5 6 6 6
11 1 17 -2 13 -5z m-2751 -59 c-9 -13 -16 -33 -16 -44 0 -19 -17 -38 -26 -29
-5 6 16 69 29 86 18 23 29 12 13 -13z m274 5 c0 -5 -4 -10 -10 -10 -5 0 -10 5
-10 10 0 6 5 10 10 10 6 0 10 -4 10 -10z m-324 -137 c-11 -11 -17 4 -9 23 7
18 8 18 11 1 2 -10 1 -21 -2 -24z m2384 -37 c0 -2 -8 -10 -17 -17 -16 -13 -17
-12 -4 4 13 16 21 21 21 13z m-2070 -60 c0 -2 -7 -7 -16 -10 -8 -3 -12 -2 -9
4 6 10 25 14 25 6z m860 -37 c0 -5 -7 -9 -15 -9 -9 0 -12 6 -9 15 6 15 24 11
24 -6z m2210 -42 c0 -6 -13 2 -30 18 -16 16 -30 30 -30 33 0 2 14 -6 30 -18
17 -12 30 -26 30 -33z m-1700 33 c0 -5 -5 -10 -11 -10 -5 0 -7 5 -4 10 3 6 8
10 11 10 2 0 4 -4 4 -10z m110 -10 c0 -5 -4 -10 -10 -10 -5 0 -10 5 -10 10 0
6 5 10 10 10 6 0 10 -4 10 -10z m-763 -6 c-3 -3 -12 -4 -19 -1 -8 3 -5 6 6 6
11 1 17 -2 13 -5z m142 -8 c9 -10 9 -16 1 -21 -12 -7 -40 11 -40 26 0 14 26
10 39 -5z m-1409 0 c0 -3 -4 -8 -10 -11 -5 -3 -10 -1 -10 4 0 6 5 11 10 11 6
0 10 -2 10 -4z m1246 -13 c-10 -10 -46 -11 -40 -1 3 4 15 8 26 8 12 0 18 -3
14 -7z m71 -7 c-3 -8 -1 -17 6 -20 7 -2 4 -5 -5 -5 -12 -1 -18 6 -18 19 0 11
5 20 11 20 6 0 9 -6 6 -14z m-137 -6 c0 -5 -7 -10 -16 -10 -8 0 -12 5 -9 10 3
6 10 10 16 10 5 0 9 -4 9 -10z m417 -6 c-3 -3 -12 -4 -19 -1 -8 3 -5 6 6 6 11
1 17 -2 13 -5z m-482 -14 c-3 -5 -12 -10 -18 -10 -7 0 -6 4 3 10 19 12 23 12
15 0z m2200 0 c-3 -5 -12 -7 -20 -3 -21 7 -19 13 6 13 11 0 18 -4 14 -10z
m-3515 -4 c0 -3 -4 -8 -10 -11 -5 -3 -10 -1 -10 4 0 6 5 11 10 11 6 0 10 -2
10 -4z m2010 0 c0 -2 -7 -7 -16 -10 -8 -3 -12 -2 -9 4 6 10 25 14 25 6z m-650
-22 c0 -2 -11 -3 -24 -2 -14 1 -23 5 -20 9 4 7 44 0 44 -7z m1540 0 c0 -2 -7
-4 -15 -4 -8 0 -15 4 -15 10 0 5 7 7 15 4 8 -4 15 -8 15 -10z"/>
<path d="M3805 2550 c-3 -5 -1 -10 4 -10 6 0 11 5 11 10 0 6 -2 10 -4 10 -3 0
-8 -4 -11 -10z"/>
<path d="M835 2495 c-22 -23 -33 -45 -21 -45 2 0 12 -3 22 -7 13 -5 16 -3 12
9 -4 9 0 27 7 42 17 33 13 33 -20 1z"/>
<path d="M1815 2510 c3 -5 8 -10 11 -10 2 0 4 5 4 10 0 6 -5 10 -11 10 -5 0
-7 -4 -4 -10z"/>
<path d="M2594 2443 c2 -21 9 -58 16 -83 6 -24 12 -66 12 -92 -1 -30 3 -46 9
-42 6 3 8 12 5 19 -2 7 2 16 10 19 8 3 14 12 14 20 0 7 11 17 25 20 14 4 25
13 25 21 0 18 -1 18 -36 5 -24 -10 -26 -9 -14 5 11 14 11 18 1 25 -11 6 -11 9
-1 15 10 6 9 11 -5 22 -11 7 -13 13 -7 13 21 0 13 25 -15 51 -14 13 -22 17
-18 9 8 -13 6 -13 -8 -2 -15 12 -16 10 -13 -25z"/>
<path d="M870 2430 c0 -6 10 -21 21 -33 18 -18 21 -19 15 -4 -3 10 -6 25 -6
33 0 8 -7 14 -15 14 -8 0 -15 -5 -15 -10z"/>
<path d="M830 2385 c-28 -29 -25 -35 13 -28 20 4 27 11 27 29 0 31 -11 30 -40
-1z"/>
<path d="M900 2361 c13 -9 12 -12 -7 -17 -13 -4 -23 -10 -23 -14 0 -4 -21 -5
-47 -3 -38 4 -46 3 -36 -7 16 -17 118 -19 135 -2 14 14 1 43 -23 50 -11 3 -11
1 1 -7z"/>
<path d="M899 2273 c-1 -16 -2 -43 -3 -60 0 -18 5 -35 12 -38 6 -2 12 -15 12
-28 0 -14 6 -30 14 -36 11 -10 16 -8 21 8 6 21 -9 61 -24 61 -5 0 -11 16 -13
35 -2 20 0 35 7 35 5 0 4 4 -4 9 -9 6 -10 11 -2 15 16 10 14 26 -4 26 -9 0
-15 -10 -16 -27z"/>
<path d="M1745 2059 c-4 -6 -5 -12 -2 -15 2 -3 7 2 10 11 7 17 1 20 -8 4z"/>
<path d="M3618 2063 c7 -3 16 -2 19 1 4 3 -2 6 -13 5 -11 0 -14 -3 -6 -6z"/>
<path d="M2791 2014 c14 -17 42 -18 37 -1 -3 6 -14 13 -26 13 -18 1 -20 -2
-11 -12z"/>
<path d="M1537 1999 c-4 -16 -3 -18 9 -8 7 6 11 15 8 20 -8 13 -11 11 -17 -12z"/>
<path d="M1595 2009 c-4 -6 -5 -13 -2 -16 7 -7 27 6 27 18 0 12 -17 12 -25 -2z"/>
<path d="M1530 1956 c0 -9 5 -16 10 -16 6 0 10 4 10 9 0 6 -4 13 -10 16 -5 3
-10 -1 -10 -9z"/>
<path d="M1534 1905 c1 -28 22 -41 30 -19 7 19 -3 44 -19 44 -7 0 -12 -11 -11
-25z"/>
<path d="M1640 1883 c-40 -8 -58 -53 -20 -53 14 0 20 7 20 21 0 15 5 19 15 15
9 -3 15 0 15 9 0 8 -1 14 -2 14 -2 -1 -14 -4 -28 -6z"/>
<path d="M1650 1830 c0 -5 5 -10 10 -10 6 0 10 5 10 10 0 6 -4 10 -10 10 -5 0
-10 -4 -10 -10z"/>
<path d="M1188 1803 c7 -3 16 -2 19 1 4 3 -2 6 -13 5 -11 0 -14 -3 -6 -6z"/>
<path d="M3735 1780 c-3 -5 -2 -10 4 -10 5 0 13 5 16 10 3 6 2 10 -4 10 -5 0
-13 -4 -16 -10z"/>
<path d="M910 1770 c0 -5 -12 -11 -27 -11 -25 -2 -26 -2 -5 -6 17 -3 23 -10
19 -23 -4 -15 19 -38 28 -28 11 13 14 48 4 53 -8 6 -7 10 2 16 11 7 10 9 -3 9
-10 0 -18 -4 -18 -10z"/>
<path d="M837 1753 c-4 -3 -7 -11 -7 -17 0 -6 5 -5 12 2 6 6 9 14 7 17 -3 3
-9 2 -12 -2z"/>
<path d="M3695 1710 c-3 -5 -2 -10 4 -10 5 0 13 5 16 10 3 6 2 10 -4 10 -5 0
-13 -4 -16 -10z"/>
<path d="M932 1594 c-7 -8 -17 -12 -23 -9 -5 4 -9 -1 -9 -9 0 -9 -9 -16 -20
-16 -18 0 -39 -25 -29 -34 13 -11 59 -15 59 -5 0 6 6 16 13 24 22 23 47 55 47
60 0 11 -26 3 -38 -11z"/>
<path d="M1408 1603 c7 -3 16 -2 19 1 4 3 -2 6 -13 5 -11 0 -14 -3 -6 -6z"/>
<path d="M2187 1540 c-3 -11 -1 -20 4 -20 5 0 9 2 9 4 0 2 3 11 6 20 3 9 2 16
-4 16 -5 0 -12 -9 -15 -20z"/>
<path d="M2055 1530 c-3 -5 1 -10 9 -10 9 0 16 5 16 10 0 6 -4 10 -9 10 -6 0
-13 -4 -16 -10z"/>
<path d="M2095 1530 c-8 -13 -1 -24 14 -19 6 3 7 10 2 18 -6 10 -10 10 -16 1z"/>
<path d="M2218 1523 c6 -2 18 -2 25 0 6 3 1 5 -13 5 -14 0 -19 -2 -12 -5z"/>
<path d="M940 1510 c0 -5 5 -10 10 -10 6 0 10 5 10 10 0 6 -4 10 -10 10 -5 0
-10 -4 -10 -10z"/>
<path d="M1430 1486 c0 -8 -10 -22 -22 -30 -18 -13 -20 -18 -9 -28 10 -11 18
-6 41 22 15 19 26 38 24 42 -9 14 -34 9 -34 -6z"/>
<path d="M869 1383 c-13 -15 -11 -16 11 -9 14 4 30 8 37 8 7 1 10 5 7 10 -9
14 -41 9 -55 -9z"/>
<path d="M3612 1349 c2 -6 8 -10 13 -10 5 0 11 4 13 10 2 6 -4 11 -13 11 -9 0
-15 -5 -13 -11z"/>
<path d="M3571 1315 c-22 -24 -22 -25 -3 -25 35 0 50 10 45 31 -7 25 -13 24
-42 -6z"/>
<path d="M2260 1306 c0 -8 -3 -21 -6 -30 -4 -11 0 -16 13 -16 27 0 31 6 25 35
-5 26 -32 35 -32 11z"/>
<path d="M2150 1300 c0 -5 5 -10 10 -10 6 0 10 5 10 10 0 6 -4 10 -10 10 -5 0
-10 -4 -10 -10z"/>
<path d="M2362 1290 c-16 -26 -15 -30 3 -30 8 0 15 4 15 9 0 5 3 16 6 25 9 23
-9 20 -24 -4z"/>
<path d="M920 1290 c0 -5 5 -10 10 -10 6 0 10 5 10 10 0 6 -4 10 -10 10 -5 0
-10 -4 -10 -10z"/>
<path d="M2195 1274 c-19 -30 -10 -46 23 -38 23 6 31 24 11 24 -6 0 -9 7 -6
15 11 26 -10 25 -28 -1z"/>
<path d="M260 440 c0 -10 6 -21 13 -23 6 -3 -1 -6 -16 -6 -33 -1 -27 -21 7
-21 26 0 71 29 46 30 -11 0 -12 2 -3 8 8 5 3 12 -17 19 -26 10 -30 9 -30 -7z"/>
<path d="M18 413 c-11 -3 -18 -14 -18 -26 1 -19 2 -20 13 -7 7 8 19 21 27 28
14 12 9 13 -22 5z"/>
</g>
</svg>
