<?xml version="1.0" standalone="no"?>
<!DOCTYPE svg PUBLIC "-//W3C//DTD SVG 20010904//EN" "http://www.w3.org/TR/2001/REC-SVG-20010904/DTD/svg10.dtd">
<svg xmlns="http://www.w3.org/2000/svg" version="1.0" width="432" height="577" viewBox="0 0 432.000000 577.000000" preserveAspectRatio="xMidYMid meet">

<g transform="translate(0.000000,577.000000) scale(0.100000,-0.100000)" fill="#000000" stroke="none">
<path d="M2190 5519 c0 -6 -31 -8 -85 -3 -75 6 -85 5 -85 -10 0 -9 6 -19 14 -22 8 -3 12 -13 9 -25 -5 -17 -2 -19 23 -15 16 2 34 5 39 5 6 1 1 8 -9 16 -11 8 -18 15 -15 16 33 8 69 4 69 -7 0 -19 19 -18 26 1 9 23 24 18 24 -8 0 -12 7 -32 15 -44 11 -16 14 -34 9 -62 -8 -49 0 -52 21 -10 9 16 26 34 37 38 l22 8 -22 5 c-12 4 -22 2 -22 -3 0 -5 -4 -9 -9 -9 -4 0 -6 11 -3 25 3 20 7 23 18 14 11 -9 14 -7 15 12 1 13 1 28 0 33 -1 5 15 6 36 2 21 -3 43 -6 49 -6 7 0 14 -9 17 -20 3 -11 1 -20 -5 -20 -5 0 -6 -5 -3 -10 10 -16 25 -1 25 26 0 21 3 23 19 14 50 -26 61 -60 20 -60 -12 0 -19 -7 -19 -19 0 -27 17 -35 29 -14 10 17 10 17 11 1 0 -10 7 -18 15 -18 8 0 15 7 15 15 0 8 -4 15 -9 15 -5 0 -7 10 -4 23 10 48 11 48 35 35 12 -7 28 -19 36 -25 7 -7 24 -13 37 -13 19 0 23 -4 18 -17 -6 -16 -5 -16 11 -3 16 13 18 12 14 -10 -3 -22 0 -25 24 -22 14 2 29 -2 33 -7 3 -6 13 -11 21 -11 8 0 13 4 10 8 -2 4 4 9 15 9 18 2 19 0 7 -14 -12 -15 -10 -16 19 -10 22 4 35 2 44 -9 6 -8 20 -12 29 -9 20 7 36 -23 21 -38 -7 -7 -12 -5 -17 6 -9 24 -21 21 -19 -5 2 -28 25 -36 41 -14 13 19 30 14 119 -35 22 -12 47 -25 55 -29 8 -4 14 -14 13 -21 -2 -8 19 -23 48 -36 28 -13 47 -27 44 -33 -3 -5 3 -10 15 -10 12 0 28 -12 38 -29 14 -24 21 -27 36 -19 27 15 30 3 5 -21 -16 -15 -19 -21 -8 -22 8 -1 21 -2 29 -3 8 0 14 -7 12 -15 -4 -18 17 -41 37 -40 10 0 11 2 4 6 -21 8 -15 22 7 16 15 -4 20 0 20 16 0 11 -4 21 -9 21 -14 0 -60 47 -53 55 4 4 2 5 -4 3 -6 -2 -35 18 -64 45 -30 26 -60 45 -68 42 -7 -2 -11 -1 -8 4 6 8 -145 111 -163 111 -5 0 -11 4 -13 8 -5 15 -141 92 -160 92 -10 0 -18 4 -18 8 0 12 -161 76 -217 88 -12 2 -33 8 -47 14 -13 5 -27 6 -30 3 -3 -3 -12 0 -21 7 -11 9 -15 9 -15 1 0 -14 -43 -4 -48 10 -2 5 -8 9 -13 9 -6 0 -7 -4 -4 -10 3 -5 2 -10 -3 -10 -6 0 -12 6 -15 13 -5 12 -72 16 -84 4 -3 -4 -11 0 -17 8 -13 17 -66 28 -66 14z m475 -149 c3 -5 1 -10 -4 -10 -6 0 -11 5 -11 10 0 6 2 10 4 10 3 0 8 -4 11 -10z"/>
<path d="M1923 5498 c-24 -5 -43 -14 -43 -20 0 -6 -8 -8 -18 -6 -10 3 -24 -1 -31 -9 -8 -9 -23 -12 -36 -9 -14 4 -29 0 -37 -7 -7 -8 -19 -12 -26 -9 -19 6 -112 -30 -105 -41 4 -6 0 -8 -8 -5 -9 3 -26 -3 -40 -13 -13 -10 -32 -19 -41 -19 -9 0 -20 -4 -23 -10 -3 -5 -15 -10 -26 -10 -11 0 -19 -7 -19 -16 0 -8 -5 -12 -11 -9 -6 4 -20 -2 -32 -13 -12 -10 -36 -27 -54 -37 -18 -10 -30 -22 -27 -27 3 -4 -3 -8 -13 -8 -22 0 -57 -23 -59 -39 -1 -6 -2 -15 -3 -21 0 -5 -13 -10 -28 -10 -20 0 -24 -3 -16 -11 7 -7 19 -8 30 -4 10 5 22 7 26 6 5 -1 5 3 2 9 -4 7 2 14 14 17 12 3 21 9 21 13 0 5 39 34 88 66 48 32 90 63 94 69 5 6 8 7 8 0 0 -5 7 -1 15 9 14 19 15 19 15 1 0 -16 2 -17 18 -3 30 25 76 42 117 44 80 3 81 3 65 14 -13 9 -12 12 4 25 14 10 23 12 32 4 9 -7 15 -5 23 8 9 17 10 17 16 1 9 -23 -2 -39 -22 -31 -11 5 -14 3 -8 -6 4 -8 18 -11 36 -7 17 3 29 1 32 -7 3 -8 10 -6 19 7 16 20 13 55 -6 69 -6 5 -1 5 12 2 15 -4 22 -2 20 5 -2 7 3 15 11 18 8 2 11 0 8 -6 -4 -5 0 -15 7 -21 10 -8 16 -9 21 -1 3 5 1 10 -5 10 -6 0 -9 4 -6 9 3 5 20 5 38 2 23 -5 32 -12 30 -24 -2 -11 2 -15 12 -11 15 6 11 34 -5 34 -5 0 -9 9 -9 20 0 22 -11 23 -77 8z m-216 -104 c-3 -3 -12 -4 -19 -1 -8 3 -5 6 6 6 11 1 17 -2 13 -5z"/>
<path d="M2120 5449 c0 -5 5 -7 10 -4 6 3 10 8 10 11 0 2 -4 4 -10 4 -5 0 -10 -5 -10 -11z"/>
<path d="M2170 5430 c0 -5 5 -10 10 -10 6 0 10 5 10 10 0 6 -4 10 -10 10 -5 0 -10 -4 -10 -10z"/>
<path d="M2090 5420 c-8 -5 -12 -12 -9 -15 8 -8 39 5 39 16 0 11 -11 11 -30 -1z"/>
<path d="M2290 5419 c0 -5 5 -7 10 -4 6 3 10 8 10 11 0 2 -4 4 -10 4 -5 0 -10 -5 -10 -11z"/>
<path d="M2320 5415 c0 -8 2 -15 4 -15 2 0 6 7 10 15 3 8 1 15 -4 15 -6 0 -10 -7 -10 -15z"/>
<path d="M2563 5384 c3 -4 2 -15 -4 -25 -6 -11 -6 -19 0 -19 9 0 21 23 21 41 0 5 -5 9 -12 9 -6 0 -8 -3 -5 -6z"/>
<path d="M2328 5363 c7 -3 16 -2 19 1 4 3 -2 6 -13 5 -11 0 -14 -3 -6 -6z"/>
<path d="M2328 5338 c7 -7 12 -20 12 -31 0 -17 1 -17 16 -2 13 12 14 19 4 30 -7 8 -20 15 -28 15 -12 0 -13 -3 -4 -12z"/>
<path d="M1800 5331 c0 -6 5 -13 10 -16 6 -3 10 1 10 9 0 9 -4 16 -10 16 -5 0 -10 -4 -10 -9z"/>
<path d="M2630 5319 c0 -5 5 -7 10 -4 6 3 10 8 10 11 0 2 -4 4 -10 4 -5 0 -10 -5 -10 -11z"/>
<path d="M2688 5303 c7 -3 16 -2 19 1 4 3 -2 6 -13 5 -11 0 -14 -3 -6 -6z"/>
<path d="M2770 5294 c0 -9 5 -14 12 -12 18 6 21 28 4 28 -9 0 -16 -7 -16 -16z"/>
<path d="M1591 5278 c-1 -23 15 -31 39 -18 22 12 18 30 -6 30 -8 0 -12 -4 -9 -10 3 -5 2 -10 -4 -10 -5 0 -12 6 -14 13 -3 7 -6 6 -6 -5z"/>
<path d="M2500 5275 c0 -8 7 -15 16 -15 14 0 14 3 4 15 -7 8 -14 15 -16 15 -2 0 -4 -7 -4 -15z"/>
<path d="M2440 5260 c0 -5 10 -10 23 -10 18 0 19 2 7 10 -19 13 -30 13 -30 0z"/>
<path d="M1447 5253 c-12 -11 -8 -23 8 -23 8 0 15 7 15 15 0 16 -12 20 -23 8z"/>
<path d="M2770 5250 c0 -5 7 -10 16 -10 8 0 12 5 9 10 -3 6 -10 10 -16 10 -5 0 -9 -4 -9 -10z"/>
<path d="M2927 5223 c-8 -7 11 -33 24 -33 5 0 9 7 9 15 0 9 -6 12 -17 8 -11 -4 -14 -3 -9 5 8 13 3 16 -7 5z"/>
<path d="M2660 5190 c0 -5 7 -7 15 -4 8 4 15 8 15 10 0 2 -7 4 -15 4 -8 0 -15 -4 -15 -10z"/>
<path d="M1159 5112 c-40 -41 -46 -57 -15 -37 14 10 26 21 26 26 0 5 7 9 16 9 8 0 13 4 10 9 -4 5 0 12 6 14 9 4 8 5 -2 6 -8 0 -27 -12 -41 -27z"/>
<path d="M2690 5086 c0 -9 5 -16 10 -16 6 0 10 4 10 9 0 6 -4 13 -10 16 -5 3 -10 -1 -10 -9z"/>
<path d="M1090 5050 c0 -5 5 -10 10 -10 6 0 10 5 10 10 0 6 -4 10 -10 10 -5 0 -10 -4 -10 -10z"/>
<path d="M2485 4990 c-3 -5 -2 -10 4 -10 5 0 13 5 16 10 3 6 2 10 -4 10 -5 0 -13 -4 -16 -10z"/>
<path d="M3326 4935 c-3 -9 0 -15 9 -15 8 0 15 -6 15 -13 0 -7 5 -18 12 -25 7 -7 13 -22 13 -35 0 -15 7 -23 23 -25 26 -4 29 -17 5 -31 -15 -9 -15 -12 -4 -20 11 -7 11 -9 0 -14 -8 -4 0 -4 16 -1 24 4 27 3 15 -5 -12 -9 -10 -10 11 -6 17 4 30 1 39 -10 13 -15 11 -16 -17 -12 -25 4 -30 2 -26 -10 3 -8 17 -19 31 -24 14 -5 22 -12 19 -16 -4 -3 5 -14 18 -25 14 -11 23 -24 19 -29 -3 -5 -17 0 -31 11 -40 31 -76 22 -38 -10 8 -7 12 -16 9 -21 -10 -17 27 -21 45 -5 24 22 40 20 34 -5 -4 -13 1 -25 15 -35 12 -8 19 -21 16 -29 -7 -18 -3 -19 29 -2 20 11 23 17 15 25 -7 7 -18 12 -26 12 -11 0 -12 3 -3 13 8 11 6 19 -9 37 -11 12 -17 26 -15 31 3 4 -4 11 -16 14 -17 6 -19 9 -8 16 20 13 -9 31 -38 24 -12 -3 -25 -1 -28 5 -4 6 7 10 25 10 25 0 31 4 28 18 -2 10 -11 16 -21 14 -11 -2 -17 4 -17 17 0 17 -4 19 -23 12 -14 -6 -30 -6 -38 0 -10 6 -7 9 14 9 18 0 27 5 27 16 0 8 -4 13 -9 10 -5 -4 -7 3 -4 14 4 15 -2 22 -22 30 -18 7 -25 15 -21 26 3 9 -5 25 -21 40 -29 27 -37 30 -28 12 4 -7 0 -5 -8 5 -17 21 -23 21 -31 2z m81 -101 c-3 -3 -12 -4 -19 -1 -8 3 -5 6 6 6 11 1 17 -2 13 -5z"/>
<path d="M985 4930 c4 -6 11 -8 16 -5 14 9 11 15 -7 15 -8 0 -12 -5 -9 -10z"/>
<path d="M2025 4930 c-3 -5 -1 -10 4 -10 6 0 11 5 11 10 0 6 -2 10 -4 10 -3 0 -8 -4 -11 -10z"/>
<path d="M968 4893 c7 -3 16 -2 19 1 4 3 -2 6 -13 5 -11 0 -14 -3 -6 -6z"/>
<path d="M930 4860 c-14 -4 -18 -9 -10 -9 10 -1 11 -4 4 -9 -6 -4 -13 -15 -17 -25 -13 -34 24 -14 38 21 8 17 13 32 12 31 -1 -1 -13 -5 -27 -9z"/>
<path d="M3320 4850 c0 -5 9 -10 20 -10 11 0 20 5 20 10 0 6 -9 10 -20 10 -11 0 -20 -4 -20 -10z"/>
<path d="M3348 4803 c6 -2 18 -2 25 0 6 3 1 5 -13 5 -14 0 -19 -2 -12 -5z"/>
<path d="M3410 4700 c0 -5 5 -10 10 -10 6 0 10 5 10 10 0 6 -4 10 -10 10 -5 0 -10 -4 -10 -10z"/>
<path d="M3520 4504 c0 -8 5 -12 10 -9 6 4 8 11 5 16 -9 14 -15 11 -15 -7z"/>
<path d="M3615 4500 c3 -5 8 -10 11 -10 2 0 4 5 4 10 0 6 -5 10 -11 10 -5 0 -7 -4 -4 -10z"/>
<path d="M3572 4473 c2 -9 10 -18 18 -20 12 -4 13 -3 1 5 -7 5 -10 15 -7 21 4 6 2 11 -4 11 -6 0 -10 -8 -8 -17z"/>
<path d="M3620 4465 c11 -14 12 -19 3 -22 -7 -3 -13 -11 -13 -19 0 -9 -5 -12 -12 -8 -7 5 -8 3 -3 -6 6 -10 12 -7 26 11 21 27 21 50 -1 57 -13 5 -13 3 0 -13z"/>
<path d="M3544 4441 c11 -11 23 -21 28 -21 14 0 -1 19 -25 31 -22 12 -22 12 -3 -10z"/>
<path d="M3630 4410 c0 -5 7 -10 16 -10 8 0 12 5 9 10 -3 6 -10 10 -16 10 -5 0 -9 -4 -9 -10z"/>
<path d="M3668 4353 c7 -3 16 -2 19 1 4 3 -2 6 -13 5 -11 0 -14 -3 -6 -6z"/>
<path d="M3538 4093 c3 -15 13 -36 24 -47 22 -24 23 -19 3 27 -18 44 -34 55 -27 20z"/>
<path d="M3500 4080 c0 -5 5 -10 10 -10 6 0 10 5 10 10 0 6 -4 10 -10 10 -5 0 -10 -4 -10 -10z"/>
<path d="M3454 3979 c-3 -6 -2 -15 3 -20 5 -5 9 -1 10 11 2 22 -2 25 -13 9z"/>
<path d="M3500 3977 c0 -8 7 -17 15 -21 8 -3 15 -2 15 3 0 5 -7 14 -15 21 -12 10 -15 10 -15 -3z"/>
<path d="M3520 3930 c0 -6 -11 -10 -25 -10 -27 0 -32 -9 -14 -27 7 -7 7 -13 1 -17 -6 -3 -13 -2 -17 4 -10 17 -25 11 -25 -10 0 -13 7 -20 20 -20 21 0 27 -15 10 -25 -15 -9 -12 -25 5 -25 8 0 15 -7 15 -15 0 -8 4 -15 9 -15 5 0 7 -8 4 -18 -2 -10 -13 -18 -24 -18 -20 0 -25 11 -9 21 13 8 1 35 -17 35 -9 0 -13 -6 -10 -15 4 -8 2 -17 -3 -20 -5 -3 -7 -20 -3 -36 4 -21 1 -34 -8 -40 -12 -7 -12 -12 -1 -29 7 -11 10 -25 7 -30 -4 -6 -1 -10 4 -10 6 0 11 -4 11 -10 0 -5 -6 -8 -12 -6 -7 1 -10 1 -5 -1 4 -3 7 -11 7 -19 0 -9 5 -12 11 -8 8 4 8 0 0 -15 -10 -17 -9 -21 3 -21 9 0 13 -6 10 -14 -3 -8 0 -25 7 -38 7 -13 13 -26 14 -30 0 -4 7 -15 15 -25 9 -10 16 -22 17 -26 2 -14 13 -21 13 -9 0 7 4 12 9 12 6 0 9 -9 8 -19 0 -11 -4 -18 -8 -15 -15 9 -20 -18 -7 -34 21 -26 38 -70 32 -85 -5 -15 42 -41 51 -28 2 5 -5 11 -17 14 -20 6 -21 8 -6 24 8 10 18 25 21 33 4 11 6 10 6 -4 2 -31 68 -14 111 29 19 20 27 33 18 30 -9 -4 -19 -13 -22 -21 -3 -8 -12 -14 -19 -14 -8 0 -20 -7 -27 -15 -21 -25 -40 -18 -40 15 0 21 -5 30 -16 30 -14 0 -16 7 -11 39 2 22 0 44 -5 49 -12 12 -2 62 12 62 6 0 10 -4 10 -10 0 -5 5 -10 10 -10 6 0 10 9 10 20 0 11 -7 20 -15 20 -24 0 -20 92 5 115 11 10 20 24 20 31 0 19 -29 44 -44 38 -20 -8 -30 14 -14 33 11 14 11 16 -4 11 -30 -12 -64 49 -44 80 11 18 -3 92 -17 92 -8 0 -7 3 1 9 11 7 11 9 -2 14 -9 4 -16 2 -16 -3z m113 -266 c4 -23 3 -24 -10 -11 -9 8 -12 20 -9 26 10 16 13 14 19 -15z m-33 -144 c0 -5 -5 -10 -11 -10 -5 0 -7 5 -4 10 3 6 8 10 11 10 2 0 4 -4 4 -10z m-30 -30 c0 -5 -4 -10 -10 -10 -5 0 -10 5 -10 10 0 6 5 10 10 10 6 0 10 -4 10 -10z"/>
<path d="M3575 3890 c-3 -6 2 -22 13 -38 27 -38 31 -55 15 -70 -17 -18 -8 -31 17 -25 20 5 28 42 13 57 -4 3 -8 14 -9 23 -4 23 -26 63 -35 63 -4 0 -11 -5 -14 -10z"/>
<path d="M3645 3870 c3 -5 8 -10 11 -10 2 0 4 5 4 10 0 6 -5 10 -11 10 -5 0 -7 -4 -4 -10z"/>
<path d="M3157 3744 c-3 -3 -23 -6 -44 -5 -57 1 -93 -9 -93 -25 0 -15 -9 -16 -129 -18 -49 -1 -76 -5 -79 -14 -2 -7 -7 -10 -12 -7 -5 3 -16 -2 -24 -11 -15 -14 -16 -14 -16 0 0 13 -11 11 -59 -13 -32 -17 -61 -28 -64 -25 -3 3 -8 -4 -12 -15 -3 -12 -13 -21 -21 -21 -8 0 -14 -4 -14 -10 0 -5 -7 -10 -16 -10 -10 0 -14 -5 -10 -16 3 -8 2 -12 -4 -9 -6 3 -10 2 -10 -4 0 -5 6 -12 13 -15 8 -3 7 -8 -5 -16 -22 -13 -24 -34 -3 -26 8 3 15 1 15 -5 0 -5 -11 -14 -25 -19 -14 -5 -25 -15 -25 -22 0 -9 -3 -8 -10 2 -8 13 -10 13 -10 -2 0 -9 -9 -20 -20 -23 -11 -3 -20 -11 -20 -16 0 -6 5 -7 10 -4 6 3 10 2 10 -3 0 -5 -11 -15 -25 -22 -14 -8 -28 -24 -31 -37 -4 -13 -10 -23 -16 -23 -16 0 -36 -64 -36 -117 1 -29 4 -53 8 -53 4 0 7 -6 6 -14 0 -8 2 -15 7 -15 29 -3 37 1 37 18 0 31 11 51 24 44 19 -13 38 -12 33 1 -3 7 6 21 19 31 13 10 25 27 25 39 1 17 2 17 6 4 5 -21 21 -14 90 38 25 19 49 34 54 34 18 0 -1 -19 -37 -36 -23 -11 -33 -22 -30 -31 3 -8 1 -11 -4 -8 -17 11 -80 -64 -80 -94 0 -6 7 -11 15 -11 8 0 15 -4 15 -10 0 -14 77 -11 119 4 27 10 31 14 18 19 -9 3 -17 13 -17 21 0 8 -5 16 -11 18 -31 10 25 85 83 111 46 22 51 21 38 -2 -14 -27 -13 -91 2 -91 6 0 8 -3 5 -6 -12 -12 12 -41 47 -58 53 -25 100 -21 137 12 27 24 33 37 37 85 2 31 8 57 13 57 5 0 9 -4 9 -10 0 -5 7 -10 15 -10 8 0 24 -9 36 -21 l21 -21 -38 -39 c-20 -21 -41 -36 -46 -33 -4 3 -8 0 -8 -7 0 -6 8 -9 20 -6 11 3 23 1 26 -4 3 -5 1 -9 -5 -9 -6 0 -8 -6 -5 -14 4 -10 -5 -16 -26 -21 -17 -4 -43 -13 -57 -20 -15 -8 -39 -11 -55 -8 -19 4 -28 1 -28 -8 0 -10 -3 -10 -12 -1 -16 16 -85 15 -91 -1 -3 -8 1 -14 9 -14 7 0 11 4 8 9 -7 11 3 10 27 -3 11 -5 17 -14 14 -20 -9 -13 9 -11 23 3 9 9 17 9 35 -1 29 -16 130 2 162 29 10 8 19 8 34 0 12 -6 21 -7 21 -3 0 4 4 2 9 -6 7 -11 12 -10 27 8 10 11 24 21 32 21 18 0 82 66 82 85 0 9 5 13 10 10 17 -11 11 3 -14 30 -28 30 -42 79 -19 71 8 -3 11 -1 8 5 -4 5 -1 16 5 24 7 8 9 22 6 32 -4 9 -1 21 6 26 9 6 8 7 -4 3 -12 -3 -18 0 -18 9 0 8 -17 24 -39 37 -27 16 -37 27 -33 40 3 13 -2 18 -19 19 -13 0 -34 2 -46 3 -28 3 -29 -2 -5 -21 9 -8 13 -12 7 -10 -5 2 -26 11 -45 20 -19 9 -57 22 -85 30 -28 8 -40 15 -28 16 12 1 25 6 28 11 3 6 10 10 16 10 5 0 9 -4 9 -10 0 -5 -7 -10 -17 -10 -9 0 -14 -3 -10 -6 10 -10 67 7 64 19 -1 7 4 12 11 11 6 -1 21 -2 31 -2 10 -1 22 -9 25 -18 5 -13 0 -15 -27 -10 -23 4 -27 4 -12 -3 24 -10 127 -2 120 10 -3 4 0 11 6 15 8 4 9 3 5 -4 -4 -8 0 -12 12 -12 10 0 27 -8 38 -18 24 -23 91 -27 110 -7 19 19 18 25 -5 25 -30 0 -33 16 -6 28 30 14 33 50 8 74 -10 10 -31 31 -47 47 -16 16 -35 27 -42 24 -8 -3 -17 2 -20 11 -3 8 -21 18 -40 22 -19 3 -34 10 -34 15 0 10 -14 12 -23 3z m6 -200 c-27 -25 -43 -31 -43 -14 0 6 6 10 13 10 7 0 18 9 25 20 7 12 17 18 22 15 6 -3 -2 -17 -17 -31z m-136 19 c-11 -10 -58 -13 -52 -2 4 5 18 9 32 9 15 0 23 -3 20 -7z m206 -10 c-7 -2 -19 -2 -25 0 -7 3 -2 5 12 5 14 0 19 -2 13 -5z m-500 -10 c-20 -7 -15 -23 5 -18 9 3 4 -1 -13 -9 -46 -23 -59 -19 -29 9 15 14 32 25 38 24 6 0 6 -3 -1 -6z m117 -8 c0 -2 -18 -5 -41 -7 -32 -3 -37 -1 -25 8 13 9 66 8 66 -1z m50 5 c0 -5 -9 -10 -21 -10 -11 0 -17 5 -14 10 3 6 13 10 21 10 8 0 14 -4 14 -10z m419 -13 c-2 -1 -11 -8 -20 -15 -13 -10 -19 -9 -29 3 -11 13 -8 15 20 15 19 0 31 -1 29 -3z m-369 -128 c0 -5 20 -6 45 -2 36 5 44 3 40 -8 -5 -14 25 -31 78 -43 32 -7 37 -26 6 -26 -11 0 -17 5 -14 10 4 6 -10 10 -34 10 -24 0 -46 7 -57 17 -9 10 -27 16 -40 15 -12 -2 -25 2 -29 7 -4 7 -12 8 -24 2 -10 -6 -26 -9 -37 -9 -10 1 -38 -2 -61 -6 -48 -9 -62 9 -15 20 15 3 38 10 52 14 53 19 90 18 90 -1z m-180 -43 c0 -2 -7 -6 -15 -10 -8 -3 -15 -1 -15 4 0 6 7 10 15 10 8 0 15 -2 15 -4z m130 -41 c11 -13 8 -15 -14 -15 -16 0 -26 5 -26 15 0 8 6 15 14 15 7 0 19 -7 26 -15z m-7 -122 c-7 -2 -19 -2 -25 0 -7 3 -2 5 12 5 14 0 19 -2 13 -5z m-308 -24 c-4 -5 1 -9 9 -9 9 0 16 -5 16 -11 0 -6 -7 -9 -15 -5 -8 3 -15 1 -15 -5 0 -6 -4 -8 -8 -5 -5 3 -8 15 -6 28 3 31 3 30 14 23 6 -4 8 -11 5 -16z m45 11 c0 -5 -4 -10 -10 -10 -5 0 -10 5 -10 10 0 6 5 10 10 10 6 0 10 -4 10 -10z"/>
<path d="M1292 3643 c-19 -13 -25 -14 -32 -4 -10 17 -44 6 -87 -27 -19 -13 -40 -22 -48 -18 -9 3 -37 -4 -62 -16 l-46 -22 27 -9 c19 -6 31 -6 39 2 6 6 20 11 32 11 20 -1 20 -1 1 -15 -19 -15 -19 -15 5 -16 13 0 33 -5 44 -10 17 -8 16 -8 -7 -4 -30 6 -49 -12 -21 -21 10 -3 31 -12 46 -20 16 -7 36 -14 44 -14 13 0 13 -3 3 -15 -8 -9 -9 -15 -2 -15 13 0 26 20 27 40 0 11 10 15 35 13 67 -3 76 -6 40 -13 l-35 -7 38 -2 c31 -1 37 2 37 19 0 11 5 20 11 20 6 0 9 -7 5 -15 -3 -8 -1 -15 5 -15 6 0 -25 -18 -69 -41 -82 -42 -135 -87 -147 -126 -5 -19 -2 -23 14 -23 12 0 21 6 21 13 0 24 80 83 94 70 3 -3 6 -1 6 5 0 7 8 12 18 12 10 0 22 4 28 10 5 5 38 13 72 16 35 4 65 10 67 14 7 12 52 -1 72 -20 11 -10 29 -21 41 -24 12 -4 22 -14 22 -23 0 -12 -7 -14 -32 -8 -18 3 -57 9 -85 12 -29 3 -53 9 -53 14 0 17 -19 9 -25 -11 -4 -13 -15 -20 -31 -20 -25 0 -138 -54 -162 -77 -7 -7 -20 -13 -29 -13 -12 0 -13 -3 -3 -15 10 -12 5 -21 -25 -50 l-38 -35 32 0 c17 0 47 7 66 15 34 14 35 13 25 -5 -6 -11 -18 -20 -26 -20 -18 0 -14 -22 6 -28 7 -3 10 0 6 6 -4 6 4 18 17 26 18 12 31 14 57 6 52 -15 59 -12 24 9 -69 42 -74 85 -14 116 40 21 50 19 50 -10 0 -68 54 -125 119 -125 83 0 143 78 112 146 -13 30 -10 30 54 0 32 -15 56 -35 63 -51 13 -29 9 -42 -21 -64 -19 -13 -19 -14 -1 -24 32 -18 164 -6 164 15 0 23 -55 87 -71 82 -23 -7 -49 5 -43 21 6 15 -24 35 -43 28 -7 -3 -13 0 -13 6 0 6 -6 11 -14 11 -8 0 -18 5 -21 11 -8 12 47 8 56 -4 3 -5 12 -9 20 -10 8 -2 25 -10 39 -20 13 -9 30 -17 37 -17 7 0 13 -4 13 -9 0 -5 8 -12 18 -15 9 -3 33 -19 52 -36 41 -35 47 -36 52 -12 5 23 -12 92 -23 92 -5 0 -9 4 -9 8 0 5 -20 30 -45 56 -25 27 -45 45 -45 40 0 -5 -4 -4 -8 1 -4 6 -43 28 -86 50 -69 35 -89 40 -160 43 -45 2 -101 -1 -126 -7 -51 -11 -59 -8 -36 15 11 10 25 14 41 10 26 -7 75 9 86 26 5 8 14 7 31 -4 23 -15 158 -31 158 -19 0 4 -6 13 -12 20 -11 11 -9 11 9 2 40 -21 48 -10 14 19 -18 16 -55 34 -82 40 -27 7 -48 15 -48 18 3 18 -2 26 -9 15 -6 -10 -19 -8 -57 6 -74 27 -141 35 -178 20 -24 -10 -32 -10 -35 -1 -5 16 -22 14 -50 -5z m-47 -153 c-3 -5 -15 -10 -26 -10 -11 0 -17 5 -14 10 3 6 15 10 26 10 11 0 17 -4 14 -10z m112 4 c-3 -3 -12 -4 -19 -1 -8 3 -5 6 6 6 11 1 17 -2 13 -5z m188 -183 c7 -12 -12 -24 -25 -16 -11 7 -4 25 10 25 5 0 11 -4 15 -9z m-5 -111 c0 -5 -7 -10 -16 -10 -8 0 -12 5 -9 10 3 6 10 10 16 10 5 0 9 -4 9 -10z m305 -20 c7 -12 -10 -21 -27 -15 -7 3 -19 14 -25 25 -12 18 -10 18 17 8 17 -5 32 -14 35 -18z m-72 -17 c-7 -2 -21 -2 -30 0 -10 3 -4 5 12 5 17 0 24 -2 18 -5z"/>
<path d="M3633 3586 c4 -10 10 -29 13 -42 3 -13 10 -24 15 -24 17 0 9 40 -13 62 -17 17 -20 18 -15 4z"/>
<path d="M1448 3493 c7 -3 16 -2 19 1 4 3 -2 6 -13 5 -11 0 -14 -3 -6 -6z"/>
<path d="M3370 3480 c0 -5 5 -10 11 -10 5 0 7 5 4 10 -3 6 -8 10 -11 10 -2 0 -4 -4 -4 -10z"/>
<path d="M2505 3470 c-3 -5 1 -10 10 -10 9 0 13 5 10 10 -3 6 -8 10 -10 10 -2 0 -7 -4 -10 -10z"/>
<path d="M3196 3452 c-3 -4 4 -9 15 -9 23 -2 25 3 4 10 -8 4 -16 3 -19 -1z"/>
<path d="M2466 3435 c-11 -8 -15 -15 -9 -15 6 0 16 7 23 15 16 19 11 19 -14 0z"/>
<path d="M3640 3410 c0 -5 5 -10 11 -10 5 0 7 5 4 10 -3 6 -8 10 -11 10 -2 0 -4 -4 -4 -10z"/>
<path d="M3620 3365 c0 -9 6 -12 15 -9 8 4 15 10 15 15 0 5 -7 9 -15 9 -8 0 -15 -7 -15 -15z"/>
<path d="M770 3360 c0 -5 5 -10 11 -10 5 0 7 5 4 10 -3 6 -8 10 -11 10 -2 0 -4 -4 -4 -10z"/>
<path d="M635 3248 c3 -51 7 -115 11 -143 4 -27 7 -54 6 -58 -2 -5 2 -7 9 -5 15 5 46 97 54 161 6 50 5 53 -33 95 -21 23 -41 42 -45 42 -3 0 -4 -42 -2 -92z m55 1 c0 -5 -4 -9 -10 -9 -5 0 -10 7 -10 16 0 8 5 12 10 9 6 -3 10 -10 10 -16z m-5 -79 c3 -5 1 -10 -4 -10 -6 0 -11 5 -11 10 0 6 2 10 4 10 3 0 8 -4 11 -10z m-7 -36 c-1 -5 -9 -9 -16 -10 -10 -2 -11 1 -1 12 12 14 24 13 17 -2z"/>
<path d="M3781 3250 c-17 -28 -31 -54 -31 -59 0 -5 -7 -22 -15 -37 -8 -16 -15 -37 -15 -46 0 -28 19 -31 30 -4 13 34 37 24 49 -20 5 -18 19 -46 30 -60 12 -15 21 -41 22 -58 0 -30 1 -30 10 -7 5 14 10 45 9 70 0 25 1 55 2 66 1 11 -2 37 -6 58 -5 27 -4 37 3 32 7 -3 11 3 11 15 0 12 -4 19 -9 16 -5 -4 -7 4 -3 16 3 14 2 19 -6 14 -8 -5 -12 3 -12 23 0 50 -32 40 -69 -19z"/>
<path d="M3605 3250 c-3 -6 1 -7 9 -4 18 7 21 14 7 14 -6 0 -13 -4 -16 -10z"/>
<path d="M1278 3123 c7 -3 16 -2 19 1 4 3 -2 6 -13 5 -11 0 -14 -3 -6 -6z"/>
<path d="M1365 3079 c-4 -6 -5 -12 -2 -15 2 -3 7 2 10 11 7 17 1 20 -8 4z"/>
<path d="M1630 3080 c0 -5 7 -10 16 -10 8 0 12 5 9 10 -3 6 -10 10 -16 10 -5 0 -9 -4 -9 -10z"/>
<path d="M1526 3062 c-3 -6 -1 -14 5 -17 15 -10 25 3 12 16 -7 7 -13 7 -17 1z"/>
<path d="M1440 3050 c-13 -9 -13 -10 0 -10 8 0 22 5 30 10 13 9 13 10 0 10 -8 0 -22 -5 -30 -10z"/>
<path d="M3717 3043 c-12 -11 -8 -23 7 -23 8 0 16 7 20 15 5 15 -14 21 -27 8z"/>
<path d="M2750 2968 c20 -20 142 -48 205 -48 30 1 64 9 85 20 l35 20 -45 -7 c-51 -8 -50 -8 -145 1 -38 4 -79 7 -89 7 -11 0 -29 5 -40 11 -19 9 -19 9 -6 -4z"/>
<path d="M3709 2950 c-17 -10 -15 -60 3 -60 5 0 6 -5 3 -10 -4 -6 -11 -8 -16 -5 -18 12 -8 -10 15 -33 20 -19 25 -20 30 -6 3 9 6 24 6 35 0 10 5 19 10 19 16 0 12 25 -9 48 -21 25 -20 25 -42 12z"/>
<path d="M3640 2628 c0 -7 -7 -26 -16 -43 -8 -16 -22 -54 -30 -84 -7 -30 -19 -58 -25 -62 -7 -4 -13 -19 -15 -34 -2 -15 -6 -35 -10 -44 -9 -19 -11 -27 -13 -42 0 -6 -10 -9 -22 -6 -18 5 -20 2 -18 -32 3 -43 -5 -61 -29 -61 -16 1 -16 2 1 14 9 7 17 17 17 21 0 4 -7 2 -15 -5 -8 -6 -23 -9 -36 -5 -20 7 -21 4 -17 -29 2 -22 0 -35 -7 -34 -20 4 -54 -22 -49 -37 5 -11 2 -13 -12 -8 -13 5 -16 3 -12 -9 4 -10 -17 -40 -63 -89 -56 -60 -66 -75 -52 -80 16 -5 16 -7 -2 -16 -11 -6 -20 -22 -21 -35 -4 -43 -16 -66 -36 -71 -17 -5 -19 -11 -14 -41 5 -28 4 -36 -8 -36 -11 0 -13 -9 -11 -32 3 -19 1 -28 -4 -20 -4 7 -15 10 -24 6 -10 -3 -17 -1 -17 5 0 7 6 14 14 17 18 7 27 42 13 51 -6 4 -25 6 -43 5 -33 -3 -64 21 -44 33 5 3 10 -1 10 -9 0 -20 8 -20 40 0 l25 15 -27 -6 c-35 -7 -37 11 -3 27 25 11 34 28 14 28 -5 0 -7 5 -4 10 3 6 -1 10 -9 10 -9 0 -16 6 -16 13 0 6 -5 4 -11 -5 -5 -10 -15 -18 -22 -18 -8 0 -7 3 2 9 10 7 6 11 -17 16 -18 4 -34 15 -37 26 -4 10 -14 19 -24 19 -10 0 -24 7 -31 15 -17 21 -30 19 -30 -5 0 -11 -4 -20 -10 -20 -5 0 -10 5 -10 10 0 20 -21 9 -30 -15 -5 -14 -14 -25 -20 -25 -6 0 -16 11 -22 25 -6 14 -15 25 -20 25 -4 0 -8 7 -8 17 0 9 -3 13 -7 10 -3 -4 -11 -3 -17 3 -8 6 -12 3 -12 -11 0 -10 4 -19 8 -19 4 0 8 -5 8 -10 0 -6 -11 -8 -25 -4 -18 4 -27 1 -31 -10 -7 -17 -34 -22 -34 -6 0 6 5 10 10 10 17 0 11 35 -10 58 -30 32 -43 71 -42 125 1 43 -1 47 -18 42 -15 -5 -18 -3 -14 9 9 23 -23 20 -36 -3 -8 -16 -6 -20 8 -23 9 -2 -7 -5 -36 -5 -65 -2 -160 -21 -167 -34 -10 -16 -25 -10 -18 8 4 11 3 14 -5 9 -7 -4 -12 -13 -12 -19 0 -14 -49 -39 -60 -32 -5 3 -6 -4 -3 -14 3 -10 0 -28 -6 -39 -8 -15 -8 -22 2 -25 6 -2 1 -5 -13 -5 -14 0 -42 -2 -63 -5 -21 -2 -52 1 -70 7 -37 13 -112 60 -122 76 -11 18 -112 60 -129 54 -9 -3 -17 -16 -18 -28 -3 -46 -4 -51 -14 -49 -6 1 -9 -10 -6 -26 3 -21 -1 -29 -16 -33 -24 -7 -47 -85 -30 -106 10 -11 13 -10 21 3 8 15 10 15 23 -2 7 -10 14 -25 14 -33 1 -34 15 -41 49 -24 18 9 34 14 37 11 3 -2 8 -22 11 -42 6 -35 4 -38 -13 -31 -36 15 -123 23 -133 13 -12 -12 -148 8 -168 25 -10 8 -13 6 -13 -6 0 -10 -8 -16 -22 -16 l-21 0 20 -23 c11 -12 18 -28 16 -34 -6 -16 11 -16 53 -1 26 9 39 9 56 0 13 -6 39 -14 58 -17 19 -3 49 -13 67 -22 20 -9 45 -13 63 -9 29 5 42 -7 18 -17 -8 -4 -4 -8 9 -12 13 -4 20 -11 17 -16 -3 -5 0 -9 5 -9 6 0 11 4 11 9 0 5 11 8 24 7 13 0 22 -4 20 -8 -9 -15 102 -39 183 -40 32 -1 60 -5 64 -9 3 -5 21 -4 39 1 19 6 48 10 63 10 19 0 26 4 21 12 -5 8 -1 9 14 5 12 -4 31 -10 42 -13 16 -5 19 -3 14 10 -5 13 0 16 25 16 17 0 31 -4 31 -10 0 -5 -6 -10 -13 -10 -7 0 -13 -9 -14 -20 -1 -11 2 -20 8 -20 5 0 9 6 9 14 0 8 7 12 18 10 24 -6 51 13 34 24 -10 7 -9 12 4 23 16 12 17 12 12 -3 -7 -17 9 -28 43 -28 13 0 18 4 13 11 -5 8 1 10 20 7 14 -3 26 -1 26 4 0 5 4 7 9 4 5 -4 11 -1 13 4 5 16 76 30 111 23 23 -5 28 -3 22 6 -6 10 -3 11 14 2 17 -9 26 -9 42 2 15 11 17 16 7 20 -9 4 -7 6 5 6 9 1 17 -3 17 -9 0 -5 6 -10 13 -10 7 0 18 -9 25 -20 16 -27 34 -16 26 16 -7 27 10 33 20 7 3 -10 15 -33 26 -52 23 -36 16 -55 -26 -71 -17 -7 -21 -16 -19 -46 2 -26 8 -40 20 -44 15 -5 12 -9 -14 -20 -23 -9 -29 -15 -19 -21 7 -5 9 -9 4 -9 -5 0 -3 -7 4 -15 10 -12 10 -15 -4 -15 -9 0 -16 5 -16 11 0 8 -5 8 -15 -1 -16 -13 -21 -45 -6 -36 5 3 14 -1 21 -9 11 -13 10 -14 -5 -9 -13 5 -16 4 -11 -4 4 -7 0 -15 -9 -18 -13 -6 -14 -8 -3 -15 9 -6 9 -9 1 -9 -6 0 -15 5 -19 11 -4 7 -15 1 -30 -16 -21 -25 -22 -29 -7 -43 13 -13 13 -17 2 -21 -29 -9 -39 -42 -10 -34 24 6 36 -24 17 -43 -13 -12 -17 -12 -30 1 -18 18 -36 19 -36 3 0 -7 -3 -24 -7 -37 -5 -20 -3 -23 10 -18 11 4 17 1 17 -8 0 -17 -41 -20 -57 -4 -7 7 -12 6 -16 -5 -5 -11 3 -18 26 -25 30 -9 31 -10 9 -16 l-22 -7 26 -23 26 -22 -27 -7 c-21 -5 -25 -10 -16 -19 26 -26 11 -36 -24 -16 -24 15 -39 18 -51 11 -15 -8 -15 -11 5 -31 26 -26 26 -31 1 -31 -17 0 -19 -3 -11 -19 12 -21 -7 -35 -34 -25 -12 5 -13 10 -4 20 9 11 9 14 0 14 -7 0 -17 -14 -23 -30 -12 -35 -39 -53 -64 -43 -12 4 -15 2 -12 -8 2 -8 14 -15 25 -17 12 -2 23 -12 26 -23 6 -22 -28 -35 -67 -25 -19 5 -28 0 -42 -21 -9 -15 -26 -35 -37 -44 -18 -14 -18 -16 -4 -22 10 -4 17 -2 17 4 0 6 5 7 11 3 16 -10 -5 -26 -34 -27 -16 0 -24 -4 -21 -12 3 -7 -4 -11 -18 -11 -19 1 -23 -4 -23 -32 0 -23 -4 -31 -13 -27 -8 3 -16 5 -18 5 -14 0 0 41 17 50 30 17 63 100 39 100 -5 0 -10 -11 -10 -25 0 -15 -6 -25 -14 -25 -8 0 -30 -18 -49 -40 -19 -22 -37 -40 -40 -40 -4 0 -7 18 -7 39 0 22 -4 43 -10 46 -5 3 -10 -1 -10 -9 0 -24 -43 -61 -73 -63 -53 -4 -62 -6 -68 -16 -4 -5 -17 -3 -31 7 -14 9 -28 13 -33 9 -4 -5 -4 2 -1 15 6 16 3 22 -9 22 -11 0 -15 -6 -11 -17 3 -10 1 -25 -4 -33 -9 -13 -11 -13 -20 0 -5 8 -10 20 -10 27 0 7 -9 17 -20 23 -11 6 -20 18 -20 27 0 10 -6 14 -19 10 -12 -3 -22 1 -25 10 -5 12 -16 14 -50 9 -38 -6 -44 -4 -49 13 -3 11 0 22 7 24 6 3 0 9 -14 15 -14 6 -21 11 -16 11 6 1 1 8 -10 16 -17 13 -17 14 -2 15 12 0 15 5 11 16 -3 9 -9 12 -12 7 -10 -13 -73 -44 -79 -38 -7 6 29 34 44 35 15 0 37 51 26 62 -5 5 -21 2 -38 -7 -16 -8 -23 -15 -16 -15 6 0 12 -4 12 -10 0 -5 -5 -10 -11 -10 -15 0 -39 26 -32 34 4 3 -2 13 -13 21 -16 12 -17 16 -4 24 12 9 12 11 -3 17 -27 10 -20 24 13 24 17 0 30 5 30 10 0 6 -20 10 -45 10 -45 0 -62 17 -27 27 22 5 26 39 6 47 -9 3 -14 -1 -14 -12 0 -9 -9 -23 -20 -30 -12 -7 -20 -8 -20 -2 0 5 -7 10 -16 10 -11 0 -14 6 -9 22 6 17 4 20 -9 15 -22 -9 -21 9 2 22 19 12 19 12 -23 17 -52 6 -55 7 -55 15 0 4 13 10 30 14 52 11 47 27 -6 20 -38 -5 -45 -4 -31 5 27 17 20 33 -13 28 -32 -5 -38 3 -17 20 17 14 10 93 -7 86 -9 -4 -12 6 -10 33 2 21 3 45 3 54 1 9 11 19 23 22 27 8 17 19 -19 23 -14 2 -33 10 -41 18 -13 13 -13 17 -1 32 11 13 11 18 2 21 -7 3 -13 13 -13 24 0 10 -5 19 -11 19 -6 0 -9 6 -6 14 3 8 -1 20 -9 26 -8 7 -14 18 -14 25 0 8 -5 15 -12 17 -7 3 -11 25 -11 59 1 62 -19 119 -41 119 -19 0 -21 -16 -3 -23 6 -3 2 -6 -10 -6 -17 -1 -20 3 -16 20 5 17 2 20 -18 17 -16 -2 -24 -9 -23 -21 1 -9 -4 -17 -12 -17 -14 0 -15 3 -18 43 -1 19 -6 22 -40 19 -26 -3 -36 0 -31 7 3 6 10 9 14 7 4 -3 13 0 21 6 12 8 12 9 -2 4 -22 -7 -24 10 -3 18 8 3 15 12 15 21 0 17 -16 20 -25 5 -11 -18 -26 -10 -20 10 8 26 -3 25 -39 -4 -16 -14 -36 -22 -44 -18 -12 4 -14 -1 -9 -26 6 -28 4 -32 -14 -32 -15 0 -19 5 -15 16 3 9 6 30 6 48 0 40 39 68 64 47 12 -10 20 -9 43 6 27 18 27 18 5 21 -17 3 -21 8 -17 23 5 15 3 17 -10 12 -10 -3 -21 0 -27 8 -8 11 -9 11 -5 -2 6 -18 -29 -44 -38 -29 -3 6 -1 10 4 10 15 0 14 27 -1 32 -9 3 -8 12 5 31 23 35 22 39 -9 31 -23 -6 -25 -4 -19 15 9 30 -25 28 -53 -3 -18 -21 -19 -26 -6 -37 8 -6 14 -27 14 -45 0 -26 4 -34 18 -34 12 0 8 -8 -18 -29 -28 -24 -32 -32 -22 -43 6 -8 9 -18 5 -22 -4 -4 0 -4 10 0 10 3 17 1 17 -5 0 -6 -4 -11 -9 -11 -11 0 -61 -44 -61 -54 0 -11 18 -6 34 10 30 29 65 2 43 -33 -11 -18 -30 -16 -23 2 3 8 1 15 -4 15 -6 0 -10 -4 -10 -10 0 -5 -12 -11 -27 -11 -25 -2 -26 -2 -5 -6 17 -3 23 -10 19 -23 -3 -12 2 -20 13 -23 13 -3 20 2 25 20 7 28 33 42 45 23 5 -9 3 -18 -7 -25 -23 -17 -9 -47 19 -43 11 2 23 -3 25 -10 3 -8 -6 -11 -30 -10 -19 2 -33 6 -30 11 6 10 -39 9 -56 -2 -11 -7 -9 -10 9 -16 18 -6 20 -9 9 -16 -11 -7 -11 -9 3 -9 9 0 20 5 23 10 9 15 35 12 35 -4 0 -8 4 -18 10 -21 6 -3 7 1 4 9 -3 9 -2 16 3 16 18 0 21 -11 12 -48 -5 -25 -4 -39 4 -44 9 -6 9 -8 -1 -8 -7 0 -17 -12 -22 -26 -6 -16 -25 -32 -50 -42 -40 -17 -47 -34 -17 -40 9 -2 17 2 17 10 0 16 73 52 92 45 9 -4 8 -6 -3 -6 -21 -1 -34 -32 -17 -42 8 -5 4 -11 -15 -20 -14 -6 -24 -15 -22 -20 6 -8 -14 -24 -29 -24 -5 0 -11 -6 -14 -13 -3 -9 9 -12 41 -10 29 2 43 7 40 15 -3 6 9 19 26 28 35 18 35 18 21 -21 -12 -33 -52 -64 -58 -45 -5 14 -72 15 -72 0 0 -6 7 -9 14 -6 17 7 24 -13 22 -62 -2 -36 -26 -58 -26 -24 0 11 -5 24 -12 31 -9 9 -9 12 0 12 7 0 12 4 12 9 0 5 -11 4 -24 -2 -16 -8 -21 -16 -15 -22 5 -5 9 -16 9 -25 0 -22 41 -41 63 -28 13 7 17 5 17 -8 0 -11 5 -14 16 -10 9 4 23 1 30 -5 10 -8 22 -6 47 10 37 23 57 27 57 11 0 -5 -7 -10 -16 -10 -8 0 -13 -4 -9 -9 3 -6 -4 -15 -15 -21 -13 -7 -19 -18 -16 -26 3 -8 1 -14 -5 -14 -6 0 -13 9 -16 20 -6 23 -28 27 -37 5 -3 -8 -13 -15 -23 -15 -19 -1 -53 -22 -53 -34 0 -12 34 -6 52 10 16 16 18 16 24 0 9 -24 -7 -38 -85 -76 -38 -19 -68 -37 -65 -41 2 -4 -7 -10 -21 -13 -14 -4 -24 -10 -24 -14 3 -18 -2 -32 -12 -32 -5 0 -7 5 -3 11 9 15 -47 -15 -126 -66 -55 -36 -129 -83 -207 -131 -14 -9 -7 -10 31 -3 54 10 79 3 27 -7 -17 -4 -34 -11 -38 -17 -4 -6 -1 -7 7 -2 9 5 11 4 6 -3 -4 -7 -15 -12 -26 -12 -10 0 -20 -7 -24 -15 -3 -8 -11 -15 -18 -15 -18 0 -178 -82 -178 -91 0 -5 20 0 45 11 25 11 55 21 68 23 12 2 30 7 40 12 10 4 21 5 24 1 4 -3 -1 -6 -10 -6 -9 0 -17 -3 -17 -8 0 -4 -14 -13 -31 -21 -18 -8 -34 -22 -36 -32 -3 -11 -9 -19 -15 -19 -17 0 -68 -44 -68 -59 0 -9 9 -22 21 -29 12 -7 18 -16 15 -19 -3 -3 -12 2 -21 11 -24 23 -32 20 -39 -15 -5 -25 -9 -29 -26 -24 -12 4 -20 2 -20 -5 0 -6 5 -8 10 -5 13 8 8 -23 -8 -52 -8 -14 -9 -24 -2 -28 5 -3 10 -1 10 4 0 6 3 10 8 10 4 -1 13 -1 21 0 12 1 11 4 -2 14 -26 19 -6 42 29 32 l29 -8 -25 -6 c-17 -5 -21 -9 -12 -15 7 -4 22 -4 33 -1 19 6 20 5 9 -15 -8 -15 -18 -20 -31 -17 -10 3 -17 2 -14 -3 6 -10 -20 -32 -29 -23 -11 11 -46 14 -46 3 0 -6 3 -10 8 -10 4 0 8 -11 8 -25 1 -16 -5 -26 -17 -30 -10 -4 -19 -15 -19 -26 0 -10 -7 -19 -15 -19 -9 0 -12 -6 -8 -17 4 -11 3 -14 -5 -9 -8 5 -12 -1 -13 -16 -1 -23 -1 -22 -8 2 l-7 25 -7 -25 c-3 -14 -2 -26 3 -28 18 -6 -9 -40 -40 -50 -16 -6 -30 -15 -30 -20 0 -14 43 -23 54 -12 7 7 5 10 -4 10 -9 0 -8 4 5 14 11 8 25 11 33 8 14 -5 70 48 91 86 8 14 12 15 22 5 10 -10 10 -13 1 -13 -7 0 -12 -7 -12 -15 0 -9 -7 -18 -15 -21 -18 -7 -20 -30 -2 -38 8 -4 7 -5 -3 -4 -24 2 -50 -13 -50 -29 0 -8 -8 -13 -17 -11 -10 2 -19 -4 -21 -14 -4 -21 33 -26 41 -5 4 9 8 9 14 1 10 -14 173 -19 173 -6 0 5 9 12 20 15 13 3 20 0 20 -9 0 -20 625 -21 633 -1 4 10 6 10 6 0 1 -10 82 -13 371 -13 334 0 404 5 358 23 -9 4 -9 6 1 6 11 1 10 4 -4 14 -14 11 -15 16 -5 22 9 5 11 4 6 -3 -6 -10 4 -16 25 -14 3 1 5 -9 5 -21 -1 -20 4 -22 70 -25 67 -3 73 -1 92 23 17 21 25 24 39 16 16 -9 16 -10 -4 -11 -14 0 -23 -6 -23 -15 0 -23 57 -19 72 5 16 25 28 26 28 1 0 -19 10 -19 247 -20 184 0 249 3 255 12 6 9 8 9 8 0 0 -10 187 -13 880 -13 l880 1 -2 271 -3 271 -40 21 c-22 11 -45 27 -51 35 -7 8 -16 11 -24 6 -9 -5 -11 -4 -6 4 5 8 -3 16 -23 24 -17 6 -31 15 -31 19 0 4 -9 8 -20 8 -11 0 -20 5 -20 10 0 6 -7 10 -15 10 -8 0 -15 3 -15 8 0 4 -10 12 -23 18 -60 30 -112 60 -115 67 -2 4 -10 7 -18 7 -8 0 -14 4 -14 8 0 11 -61 32 -73 25 -6 -3 -7 -1 -3 5 4 7 -4 17 -21 24 -15 7 -31 17 -35 23 -4 5 -8 6 -8 2 0 -11 -30 19 -30 30 0 4 -10 16 -23 26 -12 9 -36 28 -53 42 -18 14 -39 25 -47 25 -8 0 -26 9 -40 20 -14 11 -30 20 -36 20 -7 0 -17 5 -24 10 -53 45 -64 58 -57 70 11 19 0 49 -16 43 -8 -3 -14 -1 -14 5 0 5 7 13 16 16 9 3 12 11 8 18 -5 8 -2 9 12 3 10 -4 30 -8 44 -9 19 -1 25 -6 25 -25 0 -20 6 -24 35 -26 l35 -3 -24 19 c-13 10 -20 19 -16 19 4 0 -4 9 -19 21 -14 11 -30 17 -36 14 -14 -9 -70 17 -70 32 0 7 5 13 10 13 6 0 10 -4 10 -8 0 -10 46 -10 56 0 11 12 54 10 54 -2 0 -5 7 -10 16 -10 14 0 14 3 4 15 -7 8 -21 15 -31 15 -17 0 -24 11 -20 34 1 5 -5 16 -14 26 -20 22 -10 30 26 23 26 -5 29 -3 29 22 0 15 -7 33 -17 40 -9 7 -13 17 -9 23 9 15 43 16 51 2 3 -5 1 -10 -4 -10 -27 0 -8 -17 20 -18 17 0 38 -7 47 -14 13 -11 14 -11 7 2 -5 8 -10 20 -10 27 0 19 -97 123 -114 123 -11 0 -12 3 -4 11 8 8 17 8 32 0 26 -14 29 3 4 19 -17 9 -17 11 0 21 15 9 16 13 5 26 -11 14 -11 15 2 11 8 -2 16 -15 16 -27 1 -12 10 -28 20 -36 21 -16 48 -20 40 -7 -3 5 1 20 9 35 15 30 0 38 -20 11 -11 -16 -12 -16 -18 0 -4 10 -1 16 8 16 8 0 15 7 15 15 0 17 16 20 25 5 8 -13 34 -1 47 24 10 18 9 19 -4 8 -19 -15 -51 -5 -44 14 3 8 -1 14 -11 14 -21 0 -93 32 -93 41 0 4 7 10 16 13 18 7 57 -11 50 -23 -3 -4 1 -8 9 -8 8 0 15 7 15 15 0 11 8 13 30 9 23 -5 28 -3 23 9 -3 8 -12 13 -20 10 -22 -9 -75 22 -71 42 5 25 56 23 74 -2 12 -18 14 -18 14 -3 0 10 8 17 21 17 11 0 18 4 15 9 -3 4 -17 7 -31 6 -17 -2 -25 2 -25 12 0 10 -6 13 -16 9 -11 -4 -15 -2 -11 8 4 11 -2 12 -29 6 -29 -7 -37 -5 -49 13 -17 25 -7 32 31 23 16 -4 22 -11 18 -19 -4 -7 -3 -9 1 -4 5 4 9 16 10 27 1 14 -5 20 -19 20 -24 0 -66 26 -66 41 0 6 13 8 30 5 17 -2 30 0 30 5 0 5 -9 9 -19 9 -28 0 -52 11 -46 21 3 4 12 6 20 2 9 -3 15 1 15 11 0 9 -5 16 -12 16 -6 0 -4 7 5 18 21 23 21 32 2 32 -8 0 -15 -7 -15 -15 0 -17 -9 -19 -28 -7 -7 5 -10 16 -6 25 3 10 1 17 -5 17 -6 0 -11 5 -11 10 0 15 30 12 36 -4 6 -15 80 -21 89 -7 2 5 -9 14 -25 21 -37 15 -31 28 9 22 16 -2 37 1 48 8 16 10 14 10 -10 5 -23 -4 -30 0 -47 27 -11 18 -18 38 -17 43 2 6 23 10 46 10 29 0 50 7 67 22 25 23 33 73 12 73 -8 0 -9 3 -3 8 14 10 17 39 5 47 -16 10 -12 25 7 25 14 0 13 3 -5 16 -12 8 -22 21 -22 28 0 9 -10 12 -27 10 -16 -2 -20 -1 -10 2 20 6 19 4 22 74 1 30 4 62 6 70 3 11 -5 16 -28 18 -22 2 -33 -1 -33 -10z m-83 -380 c18 -24 23 -48 9 -48 -10 0 -36 39 -36 55 0 10 18 5 27 -7z m-11 -75 c18 -24 17 -33 -2 -33 -10 0 -14 6 -11 14 3 7 0 19 -6 25 -6 6 -7 11 -3 11 5 0 15 -8 22 -17z m-1331 -233 c3 -5 1 -10 -4 -10 -6 0 -11 5 -11 10 0 6 2 10 4 10 3 0 8 -4 11 -10z m503 -37 c-10 -2 -28 -2 -40 0 -13 2 -5 4 17 4 22 1 32 -1 23 -4z m106 -25 c-5 -26 -3 -30 6 -18 8 11 13 12 16 3 3 -7 12 -9 20 -6 8 3 14 0 14 -6 0 -6 -6 -10 -12 -8 -7 1 -12 -6 -12 -15 1 -13 -5 -18 -22 -18 -13 0 -24 6 -24 13 0 19 -40 41 -53 28 -8 -8 -8 -11 1 -11 7 0 12 -7 12 -15 0 -8 -9 -15 -20 -15 -11 0 -20 7 -20 15 0 8 -7 15 -16 15 -13 0 -12 -5 5 -29 22 -31 19 -41 -15 -41 -25 0 -40 36 -23 57 6 6 8 17 4 23 -3 5 0 10 7 11 7 0 4 4 -7 9 -14 6 2 8 47 7 40 -1 64 -6 61 -12 -3 -5 0 -5 7 2 11 10 11 15 0 28 -10 13 -9 15 9 15 18 0 20 -4 15 -32z m708 -8 c7 -11 18 -20 25 -20 7 0 13 -4 13 -10 0 -16 -10 -12 -47 20 -21 19 -28 30 -18 30 8 0 20 -9 27 -20z m-335 -22 c-3 -8 -6 -5 -6 6 -1 11 2 17 5 13 3 -3 4 -12 1 -19z m-555 -33 c-4 -35 -3 -34 -28 -36 -43 -4 -94 2 -94 11 0 5 18 14 39 20 21 5 42 17 45 26 3 8 14 14 23 12 13 -3 17 -11 15 -33z m984 20 c-23 -17 -36 -19 -36 -6 0 11 18 19 40 20 11 0 10 -3 -4 -14z m-1640 -22 c4 -16 11 -31 17 -34 16 -11 -2 -28 -23 -22 -16 4 -20 0 -20 -18 0 -12 3 -19 7 -16 3 4 12 2 19 -4 8 -6 30 -11 51 -12 21 0 45 -6 53 -12 8 -7 22 -15 30 -18 8 -3 -10 -3 -40 0 -30 3 -82 16 -115 29 -33 12 -81 30 -107 39 -27 10 -48 18 -48 19 0 1 19 3 42 3 24 1 37 -1 31 -5 -8 -5 3 -12 28 -19 33 -9 39 -8 35 3 -3 8 -1 14 4 14 6 0 10 18 10 40 0 46 16 53 26 13z m1524 17 c0 -5 -4 -10 -9 -10 -6 0 -13 5 -16 10 -3 6 1 10 9 10 9 0 16 -4 16 -10z m-1020 -12 c0 -4 -4 -8 -10 -8 -5 0 -10 -8 -10 -17 0 -12 -3 -14 -10 -7 -14 14 -3 41 15 41 8 0 15 -4 15 -9z m480 -23 c0 -3 -10 -9 -21 -13 -20 -8 -20 -10 -5 -24 21 -22 10 -48 -21 -48 -13 0 -22 4 -18 9 3 6 -3 14 -12 20 -15 9 -14 10 11 11 21 0 27 4 22 15 -4 10 2 19 17 25 28 11 27 11 27 5z m-688 -32 c17 -15 19 -15 31 0 7 10 17 13 24 9 16 -10 0 -35 -24 -37 -10 -1 -35 -7 -57 -14 -31 -11 -50 -11 -100 -1 -33 7 -65 13 -71 14 -10 1 -25 16 -25 26 0 11 100 4 111 -7 15 -15 39 -17 39 -5 0 7 34 29 49 31 3 1 13 -7 23 -16z m148 13 c0 -2 -9 -6 -20 -9 -11 -3 -18 -1 -14 4 5 9 34 13 34 5z m587 -11 c7 -21 2 -25 -25 -18 -12 3 -22 12 -22 19 0 19 39 18 47 -1z m518 5 c3 -5 1 -10 -4 -10 -6 0 -11 5 -11 10 0 6 2 10 4 10 3 0 8 -4 11 -10z m48 3 c-7 -2 -19 -2 -25 0 -7 3 -2 5 12 5 14 0 19 -2 13 -5z m-823 -13 c12 -8 11 -10 -7 -10 -13 0 -23 5 -23 10 0 13 11 13 30 0z m326 -17 c-3 -3 -13 -2 -23 2 -17 7 -17 8 2 15 19 7 34 -5 21 -17z m458 -19 c23 -22 38 -53 31 -63 -9 -15 -44 -1 -38 16 3 8 -4 21 -16 29 -11 8 -21 19 -21 25 0 14 27 11 44 -7z m-2340 -9 c-4 -8 -10 -15 -15 -15 -4 0 -6 7 -3 15 4 8 10 15 15 15 4 0 6 -7 3 -15z m1316 -15 c0 -5 -5 -10 -11 -10 -5 0 -7 5 -4 10 3 6 8 10 11 10 2 0 4 -4 4 -10z m550 0 c0 -5 6 -9 13 -7 7 1 13 -10 15 -25 2 -16 -1 -28 -6 -28 -5 0 -9 8 -8 17 0 10 -9 22 -21 28 -26 11 -30 25 -8 25 8 0 15 -4 15 -10z m-720 -15 c0 -11 -11 -15 -42 -14 l-43 1 40 13 c22 7 41 13 43 14 1 1 2 -6 2 -14z m1286 -15 c0 -15 -6 -20 -20 -18 -28 4 -31 26 -4 31 13 2 23 5 23 6 1 0 1 -8 1 -19z m-576 -35 c-7 -8 -9 -15 -5 -15 4 0 2 -7 -6 -16 -10 -13 -10 -17 2 -25 12 -8 12 -11 -2 -22 -8 -6 -18 -21 -22 -31 -6 -14 -11 -16 -18 -9 -7 7 -8 17 -3 25 16 24 33 81 28 90 -9 14 18 40 29 29 7 -7 6 -15 -3 -26z m430 5 c9 -16 8 -20 -5 -20 -8 0 -15 6 -15 14 0 8 -6 17 -12 19 -8 3 -6 6 4 6 10 1 22 -8 28 -19z m-1353 -16 c-3 -3 -12 -4 -19 -1 -8 3 -5 6 6 6 11 1 17 -2 13 -5z m-1087 -8 c0 -3 -4 -8 -10 -11 -5 -3 -10 -1 -10 4 0 6 5 11 10 11 6 0 10 -2 10 -4z m2490 -10 c0 -20 -11 -25 -35 -15 -17 6 -17 8 -2 8 9 1 17 6 17 11 0 6 5 10 10 10 6 0 10 -6 10 -14z m-450 -16 c0 -5 -4 -10 -10 -10 -5 0 -10 5 -10 10 0 6 5 10 10 10 6 0 10 -4 10 -10z m-2020 -25 c0 -8 -7 -15 -15 -15 -16 0 -20 12 -8 23 11 12 23 8 23 -8z m2370 -11 c0 -16 -16 -19 -25 -4 -8 13 4 32 16 25 5 -4 9 -13 9 -21z m85 -44 c3 -5 1 -10 -4 -10 -6 0 -11 5 -11 10 0 6 2 10 4 10 3 0 8 -4 11 -10z m-66 -13 c12 -15 5 -27 -16 -27 -7 0 -13 9 -13 20 0 23 13 26 29 7z m111 -17 c0 -5 -4 -10 -10 -10 -5 0 -10 5 -10 10 0 6 5 10 10 10 6 0 10 -4 10 -10z m-2490 -10 c0 -5 -7 -10 -16 -10 -8 0 -12 5 -9 10 3 6 10 10 16 10 5 0 9 -4 9 -10z m1970 -10 c0 -5 -5 -10 -11 -10 -5 0 -7 5 -4 10 3 6 8 10 11 10 2 0 4 -4 4 -10z m-1990 -30 c0 -5 -4 -10 -10 -10 -5 0 -10 5 -10 10 0 6 5 10 10 10 6 0 10 -4 10 -10z m2453 -14 c4 -11 -1 -14 -21 -11 -35 4 -34 3 -27 15 9 15 42 12 48 -4z m-2378 -15 c3 -5 1 -12 -5 -16 -5 -3 -10 -14 -10 -25 0 -18 -18 -30 -45 -30 -9 0 -5 10 11 25 14 15 23 32 20 40 -6 16 19 21 29 6z m2326 -73 c9 -10 20 -18 25 -18 5 0 10 -11 10 -25 2 -27 -3 -30 -25 -16 -7 5 -11 13 -7 19 8 13 -22 24 -45 17 -11 -4 -19 -2 -19 4 0 6 10 11 23 12 20 1 20 2 -5 12 -16 6 -28 15 -28 19 0 14 54 -4 71 -24z m-2391 -12 c0 -3 -4 -8 -10 -11 -5 -3 -10 -1 -10 4 0 6 5 11 10 11 6 0 10 -2 10 -4z m2280 -16 c0 -5 -5 -10 -11 -10 -5 0 -7 5 -4 10 3 6 8 10 11 10 2 0 4 -4 4 -10z m75 -20 c3 -5 -1 -10 -10 -10 -9 0 -13 5 -10 10 3 6 8 10 10 10 2 0 7 -4 10 -10z m-2401 -41 c-6 -11 -34 15 -34 32 0 8 7 6 20 -6 11 -10 17 -22 14 -26z m66 23 c22 -20 16 -32 -23 -50 -35 -15 -37 -15 -37 2 0 9 7 12 20 9 21 -6 29 20 10 32 -13 8 -13 25 0 25 6 0 19 -8 30 -18z m55 -12 c3 -5 -1 -10 -9 -10 -9 0 -16 5 -16 10 0 6 4 10 9 10 6 0 13 -4 16 -10z m1881 -38 c-7 -7 -46 9 -46 18 0 5 11 4 25 -2 14 -6 23 -13 21 -16z m304 24 c0 -2 -7 -9 -15 -16 -13 -11 -14 -10 -9 4 5 14 24 23 24 12z m90 -47 c0 -5 -10 -9 -21 -9 -18 0 -19 2 -9 15 12 15 30 12 30 -6z m-520 -25 c0 -2 -7 -4 -15 -4 -8 0 -15 4 -15 10 0 5 7 7 15 4 8 -4 15 -8 15 -10z m437 0 c-3 -3 -12 -4 -19 -1 -8 3 -5 6 6 6 11 1 17 -2 13 -5z m106 -41 c-7 -2 -21 -2 -30 0 -10 3 -4 5 12 5 17 0 24 -2 18 -5z m-1876 -175 c-3 -8 -6 -5 -6 6 -1 11 2 17 5 13 3 -3 4 -12 1 -19z m-727 -73 c11 -13 8 -15 -18 -15 -24 0 -30 4 -26 15 4 8 12 15 19 15 7 0 18 -7 25 -15z m1824 -56 c-3 -5 -10 -7 -15 -3 -5 3 -7 10 -3 15 3 5 10 7 15 3 5 -3 7 -10 3 -15z m-1759 1 c-3 -5 -14 -10 -23 -9 -14 0 -13 2 3 9 27 11 27 11 20 0z m-30 -50 c-3 -5 -13 -10 -21 -10 -8 0 -12 5 -9 10 3 6 13 10 21 10 8 0 12 -4 9 -10z m-32 -80 c-13 -10 -23 -25 -23 -34 0 -9 -7 -16 -15 -16 -8 0 -15 5 -15 10 0 6 5 10 11 10 5 0 7 5 4 10 -4 6 -1 17 5 25 6 8 9 18 6 24 -10 16 18 20 34 4 13 -13 12 -16 -7 -33z m1687 5 c0 -32 -12 -32 -27 0 -10 22 -9 25 8 25 14 0 19 -7 19 -25z m-1735 -75 c3 -5 1 -10 -4 -10 -6 0 -11 5 -11 10 0 6 2 10 4 10 3 0 8 -4 11 -10z m1671 -5 c-8 -8 -17 -15 -19 -15 -3 0 -7 7 -11 15 -4 11 2 15 20 15 23 0 24 -2 10 -15z m804 -30 c0 -8 -4 -15 -8 -15 -5 0 -9 7 -9 15 0 8 4 15 9 15 4 0 8 -7 8 -15z m-2499 -34 c-8 -5 -10 -14 -6 -22 6 -11 5 -11 -5 -2 -14 12 -6 33 13 33 8 0 7 -3 -2 -9z m218 -34 c-2 -1 -13 -9 -24 -17 -19 -14 -19 -14 -6 3 7 9 18 17 24 17 6 0 8 -1 6 -3z m-692 -22 c0 -8 -4 -12 -9 -9 -5 3 -6 10 -3 15 9 13 12 11 12 -6z m3983 -5 c0 -5 -4 -10 -9 -10 -6 0 -13 5 -16 10 -3 6 1 10 9 10 9 0 16 -4 16 -10z m-3890 -50 c0 -11 -14 -11 -50 0 -22 7 -21 8 13 9 20 1 37 -3 37 -9z m-63 -16 c-3 -3 -12 -4 -19 -1 -8 3 -5 6 6 6 11 1 17 -2 13 -5z m379 -59 c-12 -25 -22 -41 -24 -37 -4 12 27 82 36 82 5 0 -1 -20 -12 -45z m284 25 c0 -5 -5 -10 -11 -10 -5 0 -7 5 -4 10 3 6 8 10 11 10 2 0 4 -4 4 -10z m2070 -163 c0 -2 -10 -12 -22 -23 l-23 -19 19 23 c18 21 26 27 26 19z m-2780 -21 c0 -3 -7 -12 -16 -20 -19 -20 -39 -11 -21 9 11 13 37 21 37 11z m1555 -87 c-10 -15 -25 -10 -19 6 4 8 10 12 15 9 5 -3 7 -10 4 -15z m515 -9 c0 -5 -5 -10 -11 -10 -5 0 -7 5 -4 10 3 6 8 10 11 10 2 0 4 -4 4 -10z m1691 -21 c13 -26 7 -24 -22 7 -17 19 -19 23 -6 18 10 -3 22 -15 28 -25z m-1581 11 c0 -5 -2 -10 -4 -10 -3 0 -8 5 -11 10 -3 6 -1 10 4 10 6 0 11 -4 11 -10z m-614 -27 c-8 -8 -36 5 -36 17 0 7 6 7 21 0 11 -7 18 -14 15 -17z m-241 -13 c-3 -5 -11 -10 -16 -10 -6 0 -7 5 -4 10 3 6 11 10 16 10 6 0 7 -4 4 -10z m-1411 -15 c-4 -8 -11 -15 -16 -15 -6 0 -5 6 2 15 7 8 14 15 16 15 2 0 1 -7 -2 -15z m1319 -20 c-3 -9 -8 -14 -10 -11 -3 3 -2 9 2 15 9 16 15 13 8 -4z m407 5 c0 -5 -2 -10 -4 -10 -3 0 -8 5 -11 10 -3 6 -1 10 4 10 6 0 11 -4 11 -10z m285 -10 c-3 -5 -12 -10 -18 -10 -7 0 -6 4 3 10 19 12 23 12 15 0z m925 -6 c0 -2 -7 -4 -15 -4 -8 0 -15 4 -15 10 0 5 7 7 15 4 8 -4 15 -8 15 -10z"/>
<path d="M827 2484 c-4 -4 -7 -14 -7 -23 0 -11 3 -12 11 -4 6 6 10 16 7 23 -2 6 -7 8 -11 4z"/>
<path d="M2605 2441 c-7 -12 12 -24 25 -16 11 7 4 25 -10 25 -5 0 -11 -4 -15 -9z"/>
<path d="M876 2431 c-4 -5 -2 -12 3 -15 5 -4 12 -2 15 3 4 5 2 12 -3 15 -5 4 -12 2 -15 -3z"/>
<path d="M829 2384 l-24 -26 30 4 c22 2 31 9 33 26 4 29 -9 28 -39 -4z"/>
<path d="M2614 2378 c3 -13 6 -26 6 -30 0 -4 6 -5 14 -2 11 4 11 10 2 30 -14 30 -30 32 -22 2z"/>
<path d="M2640 2379 c0 -5 5 -7 10 -4 6 3 10 8 10 11 0 2 -4 4 -10 4 -5 0 -10 -5 -10 -11z"/>
<path d="M910 2340 c0 -5 -9 -10 -20 -10 -11 0 -20 -5 -20 -11 0 -8 -5 -8 -15 1 -9 8 -15 9 -15 2 0 -19 16 -21 53 -10 33 10 53 38 27 38 -5 0 -10 -4 -10 -10z"/>
<path d="M2680 2325 c-7 -8 -8 -15 -2 -15 5 0 15 7 22 15 7 8 8 15 2 15 -5 0 -15 -7 -22 -15z"/>
<path d="M786 2321 c9 -9 45 -11 39 -2 -3 6 -14 9 -25 8 -10 -1 -17 -3 -14 -6z"/>
<path d="M2626 2323 c-3 -3 -3 -10 0 -14 7 -12 34 -11 34 0 0 11 -26 22 -34 14z"/>
<path d="M907 2293 c-4 -3 -7 -13 -7 -20 0 -12 3 -12 15 1 8 8 15 17 15 20 0 8 -15 7 -23 -1z"/>
<path d="M3440 2280 c0 -5 5 -10 10 -10 6 0 10 5 10 10 0 6 -4 10 -10 10 -5 0 -10 -4 -10 -10z"/>
<path d="M901 2211 c-1 -24 2 -32 9 -25 7 7 7 19 1 35 -9 23 -10 22 -10 -10z"/>
<path d="M926 2164 c-10 -26 -7 -34 13 -34 14 0 18 5 14 20 -7 27 -20 34 -27 14z"/>
<path d="M928 2113 c7 -3 16 -2 19 1 4 3 -2 6 -13 5 -11 0 -14 -3 -6 -6z"/>
<path d="M3660 2116 c0 -2 9 -6 20 -9 11 -3 18 -1 14 4 -5 9 -34 13 -34 5z"/>
<path d="M820 2070 c-9 -6 -10 -10 -3 -10 6 0 15 5 18 10 8 12 4 12 -15 0z"/>
<path d="M1047 2030 c3 -11 7 -20 9 -20 2 0 4 9 4 20 0 11 -4 20 -9 20 -5 0 -7 -9 -4 -20z"/>
<path d="M2800 2021 c0 -6 4 -13 10 -16 6 -3 7 1 4 9 -7 18 -14 21 -14 7z"/>
<path d="M1685 1949 c-11 -17 1 -21 15 -4 8 9 8 15 2 15 -6 0 -14 -5 -17 -11z"/>
<path d="M3660 1931 c0 -35 10 -44 28 -25 7 8 8 14 2 14 -5 0 -10 6 -10 14 0 8 -4 18 -10 21 -6 4 -10 -6 -10 -24z"/>
<path d="M1542 1910 c-10 -27 2 -40 20 -22 7 7 7 16 0 29 -10 17 -11 16 -20 -7z"/>
<path d="M1705 1920 c3 -5 8 -10 11 -10 2 0 4 5 4 10 0 6 -5 10 -11 10 -5 0 -7 -4 -4 -10z"/>
<path d="M3690 1891 c0 -5 14 -11 31 -15 49 -10 56 -7 25 9 -32 17 -56 19 -56 6z"/>
<path d="M1785 1860 c-3 -5 -1 -10 4 -10 6 0 11 5 11 10 0 6 -2 10 -4 10 -3 0 -8 -4 -11 -10z"/>
<path d="M1603 1844 c0 -8 3 -14 6 -14 8 0 37 19 31 21 -3 0 -12 2 -21 4 -9 1 -16 -4 -16 -11z"/>
<path d="M1238 1793 c7 -3 16 -2 19 1 4 3 -2 6 -13 5 -11 0 -14 -3 -6 -6z"/>
<path d="M3695 1710 c-3 -5 -2 -10 4 -10 5 0 13 5 16 10 3 6 2 10 -4 10 -5 0 -13 -4 -16 -10z"/>
<path d="M2780 1650 l-25 -8 28 -1 c15 -1 27 4 27 9 0 6 -1 10 -2 9 -2 -1 -14 -5 -28 -9z"/>
<path d="M2961 1633 c-1 -6 -10 -13 -22 -15 l-20 -3 21 -22 c25 -27 40 -29 39 -5 -1 21 -17 62 -18 45z"/>
<path d="M3700 1610 c0 -5 5 -10 11 -10 5 0 7 5 4 10 -3 6 -8 10 -11 10 -2 0 -4 -4 -4 -10z"/>
<path d="M949 1601 c10 -7 5 -11 -18 -16 -17 -3 -31 -13 -31 -20 0 -8 -7 -11 -19 -8 -12 3 -20 -2 -24 -16 -3 -14 0 -21 8 -21 7 0 20 -3 29 -6 9 -3 16 -1 16 5 0 6 -9 11 -20 11 -11 0 -20 4 -20 9 0 5 9 7 21 4 13 -4 30 3 50 23 33 32 37 44 12 44 -14 0 -15 -2 -4 -9z"/>
<path d="M2400 1582 c0 -5 7 -16 16 -23 14 -12 16 -11 13 5 -4 20 -29 35 -29 18z"/>
<path d="M2335 1540 c-17 -7 -17 -9 -2 -9 10 -1 17 -9 17 -21 0 -27 14 -25 33 4 15 22 15 25 1 30 -19 7 -24 7 -49 -4z"/>
<path d="M3607 1529 c7 -7 15 -10 18 -7 3 3 -2 9 -12 12 -14 6 -15 5 -6 -5z"/>
<path d="M1390 1500 c0 -5 5 -10 11 -10 5 0 7 5 4 10 -3 6 -8 10 -11 10 -2 0 -4 -4 -4 -10z"/>
<path d="M1416 1460 c-31 -32 -31 -49 1 -30 19 12 47 60 35 60 -4 0 -20 -14 -36 -30z"/>
<path d="M870 1385 c-16 -19 -11 -19 31 0 33 14 33 14 8 15 -15 0 -32 -7 -39 -15z"/>
<path d="M3607 1348 c-3 -11 -10 -17 -16 -13 -6 3 -11 -1 -11 -9 0 -9 -4 -16 -10 -16 -5 0 -10 -4 -10 -10 0 -5 11 -10 25 -10 20 0 25 5 25 26 0 19 4 25 15 20 9 -3 15 0 15 8 0 23 -28 27 -33 4z"/>
<path d="M2160 1305 c-7 -9 -8 -15 -2 -15 5 0 12 7 16 15 3 8 4 15 2 15 -2 0 -9 -7 -16 -15z"/>
<path d="M2257 1293 c-6 -34 -4 -37 23 -28 15 5 19 10 12 17 -6 6 -8 17 -5 24 3 8 -1 14 -10 14 -8 0 -17 -12 -20 -27z"/>
<path d="M2369 1303 c-1 -5 -1 -11 0 -15 0 -5 -7 -8 -16 -8 -13 0 -14 -3 -5 -12 13 -13 42 6 42 28 0 14 -19 20 -21 7z"/>
<path d="M2201 1293 c3 -20 -2 -34 -11 -28 -5 3 -10 -1 -10 -9 0 -16 11 -20 40 -16 23 3 24 8 9 26 -8 10 -13 20 -11 23 2 3 -1 7 -8 9 -6 2 -10 0 -9 -5z"/>
<path d="M935 1190 c-3 -5 -4 -14 0 -19 3 -5 -4 -16 -16 -25 -12 -8 -18 -19 -14 -25 3 -6 -1 -11 -9 -11 -8 0 -17 -4 -20 -9 -4 -5 3 -7 14 -4 11 3 20 0 20 -6 0 -6 8 -11 18 -10 10 0 12 3 5 6 -7 2 -13 15 -13 28 0 17 7 24 33 30 23 5 27 9 14 12 -11 3 -16 11 -13 19 6 16 -10 29 -19 14z"/>
<path d="M2720 989 c0 -5 5 -7 10 -4 6 3 10 8 10 11 0 2 -4 4 -10 4 -5 0 -10 -5 -10 -11z"/>
<path d="M2556 838 c3 -4 9 -8 15 -8 5 0 9 4 9 8 0 5 -7 9 -15 9 -8 0 -12 -4 -9 -9z"/>
<path d="M1820 700 c0 -5 5 -10 10 -10 6 0 10 5 10 10 0 6 -4 10 -10 10 -5 0 -10 -4 -10 -10z"/>
<path d="M214 554 c-18 -14 -18 -15 4 -4 12 6 22 13 22 15 0 8 -5 6 -26 -11z"/>
<path d="M23 418 c-13 -6 -23 -20 -23 -31 0 -20 0 -20 22 -1 48 41 50 44 36 43 -7 0 -23 -5 -35 -11z"/>
<path d="M183 378 c1 -7 -2 -12 -8 -11 -5 0 -15 -4 -21 -11 -9 -10 -7 -16 7 -24 12 -8 19 -8 20 -2 1 5 2 14 3 19 0 5 4 13 9 17 10 11 9 24 -3 24 -5 0 -9 -6 -7 -12z"/>
<path d="M111 328 c0 -10 -9 -18 -19 -18 -11 0 -18 -8 -19 -20 -2 -21 13 -26 35 -11 8 5 12 20 9 37 -2 16 -5 21 -6 12z"/>
<path d="M160 302 c0 -6 -8 -13 -17 -15 -16 -4 -16 -5 -1 -6 18 -1 34 16 24 26 -3 4 -6 1 -6 -5z"/>
<path d="M23 261 c-27 -22 -31 -71 -7 -71 8 0 12 5 9 10 -3 6 0 10 8 10 8 0 20 7 27 15 7 9 8 15 2 15 -5 0 -8 9 -5 20 7 25 -5 25 -34 1z m12 -20 c3 -5 1 -12 -5 -16 -5 -3 -10 1 -10 9 0 18 6 21 15 7z"/>
<path d="M167 265 c-4 -8 -3 -16 1 -19 4 -3 9 4 9 15 2 23 -3 25 -10 4z"/>
<path d="M120 224 c0 -8 5 -12 10 -9 6 3 10 10 10 16 0 5 -4 9 -10 9 -5 0 -10 -7 -10 -16z"/>
<path d="M95 61 c-3 -5 -1 -12 5 -16 5 -3 10 1 10 9 0 18 -6 21 -15 7z"/>
<path d="M86 13 c-6 -14 -5 -15 5 -6 7 7 10 15 7 18 -3 3 -9 -2 -12 -12z"/>
<path d="M28 8 c9 -9 15 -9 24 0 9 9 7 12 -12 12 -19 0 -21 -3 -12 -12z"/>
</g>
</svg>